<?xml version="1.0" encoding="UTF-8"?>
<svg xmlns="http://www.w3.org/2000/svg" xmlns:xlink="http://www.w3.org/1999/xlink" width="48px" height="44px" viewBox="0 0 48 44" version="1.1">
<g id="surface1">
<path style=" stroke:none;fill-rule:nonzero;fill:rgb(10.196079%,7.058824%,10.196079%);fill-opacity:1;" d="M 0 0 C 15.839844 0 31.679688 0 48 0 C 48 14.519531 48 29.039062 48 44 C 32.160156 44 16.320312 44 0 44 C 0 29.480469 0 14.960938 0 0 Z M 0 0 "/>
<path style=" stroke:none;fill-rule:nonzero;fill:rgb(70.588237%,37.254903%,55.686277%);fill-opacity:1;" d="M 28.707031 12.019531 C 29.136719 12.375 29.527344 12.765625 29.910156 13.171875 C 30.019531 13.289062 30.132812 13.398438 30.25 13.511719 C 30.453125 13.53125 30.453125 13.53125 30.621094 13.328125 C 30.679688 13.265625 30.734375 13.207031 30.792969 13.144531 C 31.15625 13.671875 31.15625 13.671875 31.15625 13.875 C 31.222656 13.898438 31.289062 13.925781 31.359375 13.949219 C 31.609375 14.058594 31.609375 14.058594 31.789062 14.199219 C 32 14.351562 32.167969 14.386719 32.421875 14.421875 C 32.210938 14.535156 32.015625 14.621094 31.789062 14.695312 C 31.613281 14.851562 31.613281 14.851562 31.515625 15.0625 C 31.621094 15.394531 31.785156 15.699219 31.945312 16.007812 C 32.628906 17.351562 33.234375 18.753906 33.386719 20.269531 C 33.433594 20.574219 33.464844 20.683594 33.699219 20.886719 C 33.855469 20.980469 34.015625 21.066406 34.179688 21.148438 C 34.398438 21.261719 34.578125 21.378906 34.773438 21.539062 C 34.820312 21.578125 34.867188 21.613281 34.914062 21.65625 C 35.335938 22.167969 35.359375 22.679688 35.335938 23.316406 C 35.335938 23.394531 35.335938 23.46875 35.335938 23.546875 C 35.332031 23.730469 35.324219 23.914062 35.320312 24.097656 C 35.261719 24.097656 35.203125 24.097656 35.140625 24.097656 C 35.113281 24.234375 35.113281 24.234375 35.082031 24.375 C 34.949219 24.816406 34.761719 25.15625 34.414062 25.46875 C 34.25 25.550781 34.085938 25.632812 33.917969 25.710938 C 33.21875 26.03125 33.21875 26.03125 32.804688 26.667969 C 32.722656 26.90625 32.648438 27.144531 32.574219 27.386719 C 31.832031 29.574219 29.929688 31.402344 27.960938 32.476562 C 25.609375 33.632812 22.867188 33.898438 20.375 33.054688 C 19.136719 32.609375 18.109375 31.894531 17.117188 31.039062 C 16.394531 30.429688 15.660156 29.863281 14.871094 29.34375 C 13.734375 28.589844 12.566406 27.738281 12.136719 26.382812 C 12.125 26.300781 12.113281 26.21875 12.097656 26.136719 C 12.0625 25.886719 12.0625 25.886719 11.738281 25.738281 C 11.683594 25.707031 11.625 25.679688 11.566406 25.648438 C 11.363281 25.53125 11.253906 25.398438 11.140625 25.195312 C 11.140625 25.136719 11.140625 25.074219 11.140625 25.011719 C 11.078125 25.011719 11.019531 25.011719 10.957031 25.011719 C 10.65625 24.113281 10.558594 22.875 10.980469 22.003906 C 11.0625 21.878906 11.144531 21.753906 11.230469 21.636719 C 11.277344 21.546875 11.328125 21.460938 11.378906 21.371094 C 12.015625 20.796875 12.804688 20.773438 13.625 20.792969 C 13.945312 20.8125 14.261719 20.855469 14.582031 20.90625 C 15.484375 19.859375 16.011719 18.683594 16.097656 17.304688 C 16.109375 17.15625 16.117188 17.011719 16.128906 16.863281 C 16.144531 16.636719 16.160156 16.410156 16.175781 16.183594 C 16.25 15.039062 16.351562 13.960938 16.878906 12.929688 C 16.957031 12.773438 16.957031 12.773438 17.035156 12.617188 C 17.84375 11.246094 19.300781 10.308594 20.800781 9.875 C 23.636719 9.277344 26.488281 10.242188 28.707031 12.019531 Z M 28.707031 12.019531 "/>
<path style=" stroke:none;fill-rule:nonzero;fill:rgb(99.215686%,98.039216%,98.431373%);fill-opacity:1;" d="M 23.726562 20.796875 C 23.824219 20.796875 23.917969 20.796875 24.015625 20.796875 C 24.273438 20.8125 24.273438 20.8125 24.542969 20.90625 C 24.542969 21.054688 24.542969 21.207031 24.542969 21.359375 C 24.644531 21.328125 24.746094 21.296875 24.851562 21.261719 C 24.984375 21.21875 25.117188 21.175781 25.25 21.132812 C 25.316406 21.109375 25.382812 21.089844 25.453125 21.066406 C 25.734375 20.976562 25.96875 20.90625 26.265625 20.90625 C 26.445312 21.28125 26.460938 21.585938 26.445312 22 C 26.566406 22 26.683594 22 26.808594 22 C 26.828125 21.921875 26.847656 21.84375 26.871094 21.765625 C 27.007812 21.398438 27.136719 21.074219 27.441406 20.8125 C 27.90625 20.667969 28.3125 20.816406 28.738281 21.011719 C 29.148438 21.238281 29.402344 21.484375 29.613281 21.910156 C 29.621094 22.179688 29.625 22.453125 29.625 22.726562 C 29.625 22.804688 29.625 22.886719 29.625 22.96875 C 29.621094 23.230469 29.621094 23.488281 29.621094 23.746094 C 29.621094 23.921875 29.621094 24.097656 29.621094 24.269531 C 29.617188 24.699219 29.617188 25.128906 29.613281 25.558594 C 29.765625 25.558594 29.914062 25.558594 30.066406 25.558594 C 30.066406 25.679688 30.066406 25.800781 30.066406 25.925781 C 29.261719 25.925781 28.453125 25.925781 27.621094 25.925781 C 27.621094 25.804688 27.621094 25.683594 27.621094 25.558594 C 27.742188 25.558594 27.863281 25.558594 27.984375 25.558594 C 27.984375 25.164062 27.980469 24.765625 27.976562 24.371094 C 27.972656 24.238281 27.972656 24.101562 27.972656 23.96875 C 27.972656 23.773438 27.972656 23.578125 27.96875 23.386719 C 27.964844 23.269531 27.964844 23.152344 27.964844 23.03125 C 27.921875 22.707031 27.921875 22.707031 27.632812 22.507812 C 27.367188 22.34375 27.367188 22.34375 27.101562 22.375 C 26.882812 22.445312 26.882812 22.445312 26.71875 22.640625 C 26.695312 22.859375 26.683594 23.074219 26.679688 23.296875 C 26.675781 23.359375 26.675781 23.425781 26.675781 23.492188 C 26.667969 23.699219 26.664062 23.90625 26.660156 24.109375 C 26.65625 24.25 26.652344 24.390625 26.648438 24.53125 C 26.640625 24.875 26.632812 25.21875 26.625 25.558594 C 26.777344 25.558594 26.925781 25.558594 27.078125 25.558594 C 27.078125 25.679688 27.078125 25.800781 27.078125 25.925781 C 26.242188 25.925781 25.40625 25.925781 24.542969 25.925781 C 24.542969 25.804688 24.542969 25.683594 24.542969 25.558594 C 24.691406 25.558594 24.84375 25.558594 24.996094 25.558594 C 24.996094 24.296875 24.996094 23.03125 24.996094 21.726562 C 24.816406 21.757812 24.636719 21.785156 24.453125 21.816406 C 24.394531 22 24.332031 22.179688 24.273438 22.363281 C 24.21875 22.363281 24.167969 22.363281 24.113281 22.363281 C 23.882812 22.363281 23.648438 22.359375 23.417969 22.359375 C 23.335938 22.359375 23.253906 22.359375 23.171875 22.355469 C 23.09375 22.355469 23.015625 22.355469 22.9375 22.355469 C 22.863281 22.355469 22.792969 22.355469 22.71875 22.355469 C 22.550781 22.347656 22.550781 22.347656 22.460938 22.457031 C 22.445312 22.6875 22.4375 22.914062 22.433594 23.144531 C 22.429688 23.214844 22.429688 23.28125 22.425781 23.351562 C 22.421875 23.574219 22.414062 23.792969 22.410156 24.015625 C 22.40625 24.164062 22.402344 24.3125 22.398438 24.460938 C 22.386719 24.828125 22.378906 25.195312 22.371094 25.558594 C 22.699219 25.558594 23.027344 25.558594 23.367188 25.558594 C 23.367188 25.679688 23.367188 25.800781 23.367188 25.925781 C 22.351562 25.925781 21.332031 25.925781 20.285156 25.925781 C 20.285156 25.804688 20.285156 25.683594 20.285156 25.558594 C 20.4375 25.558594 20.585938 25.558594 20.738281 25.558594 C 20.738281 24.265625 20.738281 22.96875 20.738281 21.636719 C 20.558594 21.664062 20.382812 21.695312 20.195312 21.726562 C 20.195312 21.605469 20.195312 21.484375 20.195312 21.359375 C 20.414062 21.285156 20.628906 21.207031 20.847656 21.132812 C 20.9375 21.101562 20.9375 21.101562 21.03125 21.066406 C 21.367188 20.953125 21.652344 20.875 22.007812 20.90625 C 22.097656 21.175781 22.1875 21.445312 22.277344 21.726562 C 22.339844 21.726562 22.398438 21.726562 22.460938 21.726562 C 22.574219 21.570312 22.574219 21.570312 22.679688 21.371094 C 22.953125 20.890625 23.179688 20.789062 23.726562 20.796875 Z M 23.726562 20.796875 "/>
<path style=" stroke:none;fill-rule:nonzero;fill:rgb(98.039216%,97.254902%,98.039216%);fill-opacity:1;" d="M 34.121094 21.058594 C 34.699219 21.402344 35.136719 21.78125 35.320312 22.457031 C 35.351562 22.746094 35.347656 23.027344 35.335938 23.316406 C 35.335938 23.429688 35.335938 23.429688 35.335938 23.546875 C 35.332031 23.730469 35.324219 23.914062 35.320312 24.097656 C 35.261719 24.097656 35.203125 24.097656 35.140625 24.097656 C 35.121094 24.191406 35.101562 24.28125 35.082031 24.375 C 34.894531 25.007812 34.519531 25.4375 33.96875 25.789062 C 33.234375 26.160156 32.390625 26.132812 31.609375 25.917969 C 31.179688 25.746094 30.894531 25.464844 30.609375 25.105469 C 30.570312 25.054688 30.53125 25.003906 30.492188 24.953125 C 30.105469 24.347656 30.167969 23.515625 30.25 22.820312 C 30.40625 22.144531 30.714844 21.597656 31.289062 21.207031 C 32.191406 20.6875 33.167969 20.609375 34.121094 21.058594 Z M 34.121094 21.058594 "/>
<path style=" stroke:none;fill-rule:nonzero;fill:rgb(97.647059%,97.647059%,97.647059%);fill-opacity:1;" d="M 4.890625 18.441406 C 6.085938 18.441406 7.28125 18.441406 8.511719 18.441406 C 8.511719 18.558594 8.511719 18.679688 8.511719 18.804688 C 8.125 18.804688 7.734375 18.804688 7.335938 18.804688 C 7.335938 21.003906 7.335938 23.203125 7.335938 25.46875 C 8.660156 24.898438 8.660156 24.898438 9.960938 24.28125 C 10.050781 24 10.050781 24 10.054688 23.734375 C 10.203125 23.734375 10.351562 23.734375 10.503906 23.734375 C 10.503906 24.457031 10.503906 25.179688 10.503906 25.925781 C 8.652344 25.925781 6.800781 25.925781 4.890625 25.925781 C 4.890625 25.804688 4.890625 25.683594 4.890625 25.558594 C 5.070312 25.558594 5.25 25.558594 5.433594 25.558594 C 5.433594 23.332031 5.433594 21.101562 5.433594 18.804688 C 5.253906 18.804688 5.074219 18.804688 4.890625 18.804688 C 4.890625 18.683594 4.890625 18.5625 4.890625 18.441406 Z M 4.890625 18.441406 "/>
<path style=" stroke:none;fill-rule:nonzero;fill:rgb(98.431373%,97.647059%,98.039216%);fill-opacity:1;" d="M 14.460938 21.054688 C 14.964844 21.410156 15.167969 21.792969 15.394531 22.363281 C 15.441406 22.863281 15.441406 22.863281 15.488281 23.371094 C 14.46875 23.371094 13.453125 23.371094 12.40625 23.371094 C 12.570312 24.003906 12.570312 24.003906 12.949219 24.464844 C 13.382812 24.675781 13.835938 24.714844 14.308594 24.648438 C 14.53125 24.5625 14.738281 24.464844 14.949219 24.351562 C 15.125 24.28125 15.125 24.28125 15.394531 24.375 C 15.292969 24.945312 14.890625 25.3125 14.433594 25.636719 C 13.6875 26.0625 12.949219 26.160156 12.113281 25.96875 C 11.742188 25.828125 11.484375 25.585938 11.230469 25.285156 C 11.183594 25.152344 11.183594 25.152344 11.140625 25.011719 C 11.078125 25.011719 11.019531 25.011719 10.957031 25.011719 C 10.65625 24.113281 10.558594 22.875 10.980469 22.003906 C 11.0625 21.878906 11.144531 21.753906 11.230469 21.636719 C 11.277344 21.546875 11.328125 21.460938 11.378906 21.371094 C 12.164062 20.660156 13.550781 20.539062 14.460938 21.054688 Z M 14.460938 21.054688 "/>
<path style=" stroke:none;fill-rule:nonzero;fill:rgb(99.215686%,98.039216%,98.039216%);fill-opacity:1;" d="M 19.292969 21.179688 C 19.667969 21.5625 19.777344 22 19.773438 22.53125 C 19.769531 22.59375 19.769531 22.65625 19.765625 22.71875 C 19.765625 22.816406 19.765625 22.816406 19.761719 22.917969 C 19.75 23.648438 19.703125 24.375 19.652344 25.105469 C 19.878906 25.058594 19.878906 25.058594 20.105469 25.011719 C 20.152344 25.191406 20.152344 25.191406 20.195312 25.378906 C 19.960938 25.488281 19.730469 25.59375 19.496094 25.703125 C 19.429688 25.734375 19.363281 25.765625 19.292969 25.796875 C 19.230469 25.828125 19.164062 25.855469 19.097656 25.886719 C 19.039062 25.914062 18.980469 25.941406 18.921875 25.96875 C 18.703125 26.027344 18.59375 26.011719 18.386719 25.925781 C 18.324219 25.835938 18.265625 25.746094 18.203125 25.652344 C 18.148438 25.671875 18.09375 25.6875 18.039062 25.707031 C 17.964844 25.734375 17.894531 25.757812 17.820312 25.78125 C 17.746094 25.808594 17.675781 25.832031 17.601562 25.855469 C 17.132812 26.007812 16.703125 26.082031 16.210938 26.015625 C 15.882812 25.820312 15.71875 25.636719 15.578125 25.285156 C 15.554688 25.0625 15.554688 25.0625 15.554688 24.828125 C 15.554688 24.753906 15.554688 24.675781 15.554688 24.597656 C 15.578125 24.351562 15.625 24.214844 15.757812 24.007812 C 15.9375 23.941406 15.9375 23.941406 16.152344 23.914062 C 16.230469 23.902344 16.3125 23.890625 16.390625 23.878906 C 16.472656 23.867188 16.554688 23.859375 16.640625 23.847656 C 16.722656 23.835938 16.804688 23.824219 16.886719 23.8125 C 17.296875 23.757812 17.699219 23.71875 18.113281 23.734375 C 18.109375 23.117188 18.109375 23.117188 17.835938 22.582031 C 17.3125 22.335938 16.761719 22.457031 16.210938 22.546875 C 16.210938 22.667969 16.210938 22.789062 16.210938 22.914062 C 16.089844 22.914062 15.972656 22.914062 15.847656 22.914062 C 15.875 22.699219 15.90625 22.488281 15.941406 22.273438 C 15.949219 22.183594 15.960938 22.09375 15.972656 22 C 16.089844 21.273438 16.089844 21.273438 16.402344 21.027344 C 17.34375 20.636719 18.429688 20.632812 19.292969 21.179688 Z M 19.292969 21.179688 "/>
<path style=" stroke:none;fill-rule:nonzero;fill:rgb(97.254902%,97.254902%,97.254902%);fill-opacity:1;" d="M 43.695312 21.074219 C 44.171875 21.433594 44.171875 21.433594 44.25 21.789062 C 44.378906 22.847656 44.273438 23.949219 44.195312 25.011719 C 44.375 25.011719 44.554688 25.011719 44.738281 25.011719 C 44.785156 25.191406 44.785156 25.191406 44.832031 25.378906 C 44.582031 25.488281 44.332031 25.59375 44.082031 25.703125 C 43.976562 25.75 43.976562 25.75 43.871094 25.796875 C 43.800781 25.828125 43.734375 25.855469 43.664062 25.886719 C 43.570312 25.925781 43.570312 25.925781 43.472656 25.96875 C 43.253906 26.027344 43.140625 26.011719 42.929688 25.925781 C 42.867188 25.835938 42.808594 25.746094 42.746094 25.652344 C 42.691406 25.671875 42.636719 25.6875 42.582031 25.707031 C 42.507812 25.734375 42.4375 25.757812 42.363281 25.78125 C 42.289062 25.808594 42.21875 25.832031 42.144531 25.855469 C 41.683594 26.003906 41.242188 26.097656 40.753906 26.015625 C 40.503906 25.816406 40.351562 25.664062 40.210938 25.378906 C 40.203125 25.195312 40.199219 25.015625 40.199219 24.835938 C 40.199219 24.738281 40.199219 24.640625 40.199219 24.542969 C 40.210938 24.28125 40.210938 24.28125 40.300781 24.007812 C 40.609375 23.960938 40.914062 23.917969 41.21875 23.871094 C 41.304688 23.859375 41.390625 23.84375 41.480469 23.832031 C 41.90625 23.769531 42.316406 23.71875 42.746094 23.734375 C 42.730469 23.171875 42.730469 23.171875 42.480469 22.683594 C 42.039062 22.359375 41.546875 22.425781 41.027344 22.503906 C 40.890625 22.523438 40.890625 22.523438 40.753906 22.546875 C 40.726562 22.667969 40.695312 22.789062 40.664062 22.914062 C 40.574219 22.914062 40.484375 22.914062 40.390625 22.914062 C 40.4375 22.300781 40.5625 21.726562 40.84375 21.179688 C 41.117188 20.984375 41.117188 20.984375 41.390625 20.90625 C 41.441406 20.886719 41.492188 20.871094 41.546875 20.855469 C 42.238281 20.710938 43.082031 20.691406 43.695312 21.074219 Z M 43.695312 21.074219 "/>
<path style=" stroke:none;fill-rule:nonzero;fill:rgb(97.254902%,97.254902%,97.254902%);fill-opacity:1;" d="M 34.957031 20.90625 C 35.855469 20.90625 36.75 20.90625 37.675781 20.90625 C 37.675781 21.023438 37.675781 21.144531 37.675781 21.269531 C 37.527344 21.269531 37.375 21.269531 37.222656 21.269531 C 37.261719 21.363281 37.296875 21.457031 37.335938 21.554688 C 37.617188 22.277344 37.847656 22.960938 37.945312 23.734375 C 37.964844 23.863281 37.984375 23.988281 38.003906 24.117188 C 38.015625 24.203125 38.027344 24.285156 38.039062 24.375 C 38.304688 24.152344 38.355469 23.972656 38.410156 23.632812 C 38.484375 23.195312 38.484375 23.195312 38.582031 23.09375 C 38.609375 22.960938 38.636719 22.824219 38.660156 22.691406 C 38.753906 22.207031 38.886719 21.738281 39.035156 21.269531 C 38.882812 21.269531 38.734375 21.269531 38.582031 21.269531 C 38.582031 21.148438 38.582031 21.027344 38.582031 20.90625 C 39.238281 20.90625 39.894531 20.90625 40.574219 20.90625 C 40.574219 21.023438 40.574219 21.144531 40.574219 21.269531 C 40.453125 21.269531 40.335938 21.269531 40.210938 21.269531 C 40.191406 21.351562 40.175781 21.433594 40.15625 21.519531 C 40.066406 21.835938 39.933594 22.109375 39.785156 22.398438 C 39.496094 22.976562 39.238281 23.5625 38.988281 24.160156 C 38.914062 24.332031 38.839844 24.5 38.769531 24.671875 C 38.503906 25.289062 38.503906 25.289062 38.308594 25.925781 C 37.890625 25.925781 37.472656 25.925781 37.042969 25.925781 C 37.007812 25.832031 36.976562 25.738281 36.945312 25.640625 C 36.679688 24.867188 36.394531 24.109375 36.082031 23.355469 C 35.898438 22.910156 35.738281 22.460938 35.59375 22 C 35.558594 21.941406 35.527344 21.878906 35.496094 21.820312 C 35.410156 21.636719 35.410156 21.636719 35.410156 21.269531 C 35.261719 21.269531 35.113281 21.269531 34.957031 21.269531 C 34.957031 21.148438 34.957031 21.027344 34.957031 20.90625 Z M 34.957031 20.90625 "/>
<path style=" stroke:none;fill-rule:nonzero;fill:rgb(62.352943%,39.215687%,65.882355%);fill-opacity:1;" d="M 31.96875 21.726562 C 32.511719 21.753906 32.925781 22.015625 33.328125 22.363281 C 33.6875 22.789062 33.632812 23.25 33.621094 23.78125 C 33.621094 23.867188 33.621094 23.953125 33.621094 24.039062 C 33.617188 24.4375 33.59375 24.804688 33.507812 25.195312 C 32.96875 25.140625 32.550781 24.988281 32.191406 24.574219 C 31.726562 23.828125 31.796875 22.851562 31.878906 22 C 31.910156 21.910156 31.9375 21.820312 31.96875 21.726562 Z M 31.96875 21.726562 "/>
<path style=" stroke:none;fill-rule:nonzero;fill:rgb(98.039216%,96.470588%,96.862745%);fill-opacity:1;" d="M 30.703125 13.144531 C 31.054688 13.46875 31.054688 13.46875 31.105469 13.703125 C 31.121094 13.761719 31.136719 13.816406 31.15625 13.875 C 31.367188 13.976562 31.367188 13.976562 31.609375 14.058594 C 31.667969 14.105469 31.726562 14.152344 31.789062 14.199219 C 32 14.351562 32.167969 14.386719 32.421875 14.421875 C 32.375 14.445312 32.328125 14.46875 32.28125 14.492188 C 32.171875 14.546875 32.171875 14.546875 32.058594 14.605469 C 31.957031 14.660156 31.855469 14.710938 31.75 14.765625 C 31.300781 15.027344 30.996094 15.402344 30.792969 15.882812 C 30.734375 15.882812 30.671875 15.882812 30.609375 15.882812 C 30.59375 15.835938 30.574219 15.789062 30.554688 15.738281 C 30.335938 15.242188 30.097656 14.945312 29.613281 14.695312 C 29.402344 14.617188 29.203125 14.566406 28.980469 14.515625 C 28.980469 14.484375 28.980469 14.453125 28.980469 14.421875 C 29.074219 14.402344 29.167969 14.378906 29.265625 14.355469 C 29.953125 14.152344 30.308594 13.722656 30.703125 13.144531 Z M 30.703125 13.144531 "/>
<path style=" stroke:none;fill-rule:nonzero;fill:rgb(41.176471%,23.921569%,52.549022%);fill-opacity:1;" d="M 21.464844 9.859375 C 21.140625 10.039062 20.808594 10.136719 20.457031 10.246094 C 19.519531 10.554688 18.839844 11.007812 18.125 11.699219 C 17.933594 11.867188 17.933594 11.867188 17.660156 11.957031 C 17.550781 12.1875 17.550781 12.1875 17.480469 12.414062 C 17.417969 12.414062 17.359375 12.414062 17.296875 12.414062 C 17.289062 12.464844 17.277344 12.515625 17.265625 12.566406 C 17.171875 12.917969 17.011719 13.242188 16.867188 13.578125 C 16.644531 14.167969 16.546875 14.734375 16.507812 15.359375 C 16.496094 15.5 16.484375 15.640625 16.472656 15.785156 C 16.457031 16.003906 16.445312 16.226562 16.429688 16.445312 C 16.242188 19.140625 16.242188 19.140625 15.367188 20.140625 C 15.292969 20.203125 15.292969 20.203125 15.214844 20.265625 C 15.371094 19.859375 15.550781 19.472656 15.738281 19.078125 C 15.972656 18.496094 16.058594 17.925781 16.097656 17.304688 C 16.109375 17.15625 16.117188 17.011719 16.128906 16.863281 C 16.144531 16.636719 16.160156 16.410156 16.175781 16.183594 C 16.25 15.039062 16.351562 13.960938 16.878906 12.929688 C 16.929688 12.824219 16.980469 12.722656 17.035156 12.617188 C 17.808594 11.304688 19.230469 10.320312 20.683594 9.921875 C 20.957031 9.871094 21.1875 9.839844 21.464844 9.859375 Z M 21.464844 9.859375 "/>
<path style=" stroke:none;fill-rule:nonzero;fill:rgb(31.37255%,15.686275%,31.764707%);fill-opacity:1;" d="M 12.859375 21.359375 C 13.152344 21.367188 13.289062 21.433594 13.515625 21.617188 C 13.761719 22.066406 13.742188 22.492188 13.765625 23.003906 C 13.289062 23.003906 12.808594 23.003906 12.316406 23.003906 C 12.363281 22.390625 12.410156 21.816406 12.859375 21.359375 Z M 12.859375 21.359375 "/>
<path style=" stroke:none;fill-rule:nonzero;fill:rgb(54.901963%,24.313726%,44.313726%);fill-opacity:1;" d="M 31.515625 14.789062 C 31.578125 14.820312 31.636719 14.847656 31.699219 14.878906 C 31.660156 14.929688 31.625 14.976562 31.589844 15.027344 C 31.488281 15.253906 31.488281 15.253906 31.632812 15.496094 C 31.695312 15.59375 31.757812 15.691406 31.824219 15.792969 C 32.695312 17.230469 33.210938 18.875 33.472656 20.53125 C 33.5 20.726562 33.5 20.726562 33.601562 20.90625 C 33.464844 20.859375 33.464844 20.859375 33.328125 20.8125 C 33.316406 20.730469 33.304688 20.648438 33.292969 20.5625 C 33.019531 18.832031 32.371094 17.125 31.453125 15.632812 C 31.3125 15.390625 31.300781 15.246094 31.335938 14.972656 C 31.394531 14.910156 31.457031 14.851562 31.515625 14.789062 Z M 31.515625 14.789062 "/>
<path style=" stroke:none;fill-rule:nonzero;fill:rgb(45.490196%,24.313726%,61.176473%);fill-opacity:1;" d="M 32.875 26.015625 C 32.964844 26.046875 33.054688 26.078125 33.148438 26.109375 C 32.519531 27.777344 31.6875 29.566406 30.25 30.671875 C 30.394531 30.324219 30.617188 30.097656 30.871094 29.820312 C 31.34375 29.285156 31.683594 28.695312 32.007812 28.058594 C 32.054688 27.972656 32.097656 27.886719 32.144531 27.796875 C 32.433594 27.21875 32.667969 26.628906 32.875 26.015625 Z M 32.875 26.015625 "/>
<path style=" stroke:none;fill-rule:nonzero;fill:rgb(87.450981%,43.921569%,43.529412%);fill-opacity:1;" d="M 18.113281 24.097656 C 18.113281 24.460938 18.113281 24.824219 18.113281 25.195312 C 17.875 25.195312 17.636719 25.195312 17.390625 25.195312 C 17.242188 24.902344 17.292969 24.609375 17.296875 24.28125 C 17.601562 24.144531 17.769531 24.097656 18.113281 24.097656 Z M 18.113281 24.097656 "/>
<path style=" stroke:none;fill-rule:nonzero;fill:rgb(13.725491%,13.333334%,13.725491%);fill-opacity:1;" d="M 42.65625 24.097656 C 42.660156 24.265625 42.660156 24.429688 42.664062 24.597656 C 42.664062 24.6875 42.664062 24.78125 42.664062 24.875 C 42.65625 25.105469 42.65625 25.105469 42.566406 25.195312 C 42.300781 25.210938 42.300781 25.210938 42.023438 25.195312 C 41.839844 25.011719 41.839844 25.011719 41.824219 24.835938 C 41.828125 24.652344 41.835938 24.464844 41.839844 24.28125 C 42.351562 24.097656 42.351562 24.097656 42.65625 24.097656 Z M 42.65625 24.097656 "/>
<path style=" stroke:none;fill-rule:nonzero;fill:rgb(46.666667%,40.784314%,46.666667%);fill-opacity:1;" d="M 10.6875 22.820312 C 10.714844 22.820312 10.746094 22.820312 10.777344 22.820312 C 10.78125 22.929688 10.789062 23.035156 10.792969 23.144531 C 10.800781 23.285156 10.808594 23.425781 10.816406 23.570312 C 10.820312 23.640625 10.824219 23.710938 10.828125 23.78125 C 10.847656 24.140625 10.875 24.480469 10.957031 24.828125 C 10.867188 24.800781 10.777344 24.769531 10.6875 24.738281 C 10.6875 25.128906 10.6875 25.523438 10.6875 25.925781 C 10.628906 25.925781 10.566406 25.925781 10.503906 25.925781 C 10.503906 25.203125 10.503906 24.480469 10.503906 23.734375 C 10.355469 23.734375 10.207031 23.734375 10.054688 23.734375 C 10.054688 23.703125 10.054688 23.675781 10.054688 23.644531 C 10.230469 23.644531 10.410156 23.644531 10.597656 23.644531 C 10.625 23.371094 10.65625 23.101562 10.6875 22.820312 Z M 10.6875 22.820312 "/>
<path style=" stroke:none;fill-rule:nonzero;fill:rgb(57.647061%,24.313726%,36.862746%);fill-opacity:1;" d="M 31.515625 14.789062 C 31.578125 14.820312 31.636719 14.847656 31.699219 14.878906 C 31.644531 14.949219 31.644531 14.949219 31.585938 15.023438 C 31.484375 15.257812 31.484375 15.257812 31.644531 15.53125 C 31.710938 15.640625 31.777344 15.746094 31.84375 15.855469 C 31.914062 15.96875 31.980469 16.082031 32.050781 16.195312 C 32.082031 16.253906 32.117188 16.308594 32.148438 16.363281 C 32.605469 17.148438 32.605469 17.148438 32.605469 17.527344 C 32.542969 17.527344 32.484375 17.527344 32.421875 17.527344 C 32.375 17.421875 32.328125 17.316406 32.277344 17.207031 C 32.210938 17.066406 32.148438 16.925781 32.082031 16.785156 C 32.035156 16.679688 32.035156 16.679688 31.988281 16.574219 C 31.839844 16.257812 31.691406 15.957031 31.496094 15.667969 C 31.320312 15.402344 31.285156 15.28125 31.335938 14.972656 C 31.394531 14.910156 31.457031 14.851562 31.515625 14.789062 Z M 31.515625 14.789062 "/>
<path style=" stroke:none;fill-rule:nonzero;fill:rgb(50.196081%,25.882354%,53.725493%);fill-opacity:1;" d="M 33.417969 23.09375 C 33.648438 23.441406 33.621094 23.632812 33.617188 24.042969 C 33.617188 24.222656 33.617188 24.222656 33.613281 24.402344 C 33.601562 24.679688 33.574219 24.925781 33.507812 25.195312 C 33.417969 25.195312 33.332031 25.195312 33.238281 25.195312 C 33.210938 24.484375 33.316406 23.796875 33.417969 23.09375 Z M 33.417969 23.09375 "/>
<path style=" stroke:none;fill-rule:nonzero;fill:rgb(34.117648%,22.352941%,52.156866%);fill-opacity:1;" d="M 17.660156 11.777344 C 17.691406 11.835938 17.71875 11.894531 17.75 11.957031 C 17.632812 12.199219 17.632812 12.199219 17.480469 12.414062 C 17.417969 12.414062 17.359375 12.414062 17.296875 12.414062 C 17.289062 12.464844 17.277344 12.511719 17.265625 12.5625 C 17.195312 12.824219 17.097656 13.0625 16.992188 13.3125 C 16.953125 13.40625 16.910156 13.503906 16.871094 13.601562 C 16.832031 13.691406 16.792969 13.78125 16.753906 13.875 C 16.726562 13.945312 16.695312 14.015625 16.664062 14.089844 C 16.605469 14.230469 16.542969 14.371094 16.484375 14.515625 C 16.308594 14.0625 16.535156 13.691406 16.707031 13.265625 C 16.894531 12.859375 17.121094 12.5 17.390625 12.140625 C 17.4375 12.074219 17.488281 12.003906 17.539062 11.9375 C 17.582031 11.882812 17.621094 11.832031 17.660156 11.777344 Z M 17.660156 11.777344 "/>
<path style=" stroke:none;fill-rule:nonzero;fill:rgb(64.313728%,41.176471%,54.901963%);fill-opacity:1;" d="M 13.585938 21.910156 C 13.613281 21.910156 13.644531 21.910156 13.675781 21.910156 C 13.707031 22.269531 13.734375 22.632812 13.765625 23.003906 C 13.527344 23.003906 13.289062 23.003906 13.042969 23.003906 C 13.289062 22.558594 13.289062 22.558594 13.496094 22.457031 C 13.554688 22.179688 13.554688 22.179688 13.585938 21.910156 Z M 13.585938 21.910156 "/>
<path style=" stroke:none;fill-rule:nonzero;fill:rgb(51.764709%,24.313726%,32.156864%);fill-opacity:1;" d="M 12.136719 25.925781 C 12.414062 26.203125 12.503906 26.5625 12.640625 26.925781 C 12.773438 27.210938 12.929688 27.421875 13.132812 27.660156 C 13.101562 27.71875 13.074219 27.78125 13.042969 27.84375 C 12.566406 27.347656 12.171875 26.808594 12.113281 26.101562 C 12.121094 26.042969 12.128906 25.984375 12.136719 25.925781 Z M 12.136719 25.925781 "/>
<path style=" stroke:none;fill-rule:nonzero;fill:rgb(43.921569%,25.490198%,65.490198%);fill-opacity:1;" d="M 31.246094 29.304688 C 31.273438 29.394531 31.304688 29.484375 31.335938 29.578125 C 31.007812 29.9375 30.679688 30.300781 30.339844 30.671875 C 30.339844 30.3125 30.453125 30.246094 30.691406 29.988281 C 30.898438 29.761719 31.078125 29.558594 31.246094 29.304688 Z M 31.246094 29.304688 "/>
<path style=" stroke:none;fill-rule:nonzero;fill:rgb(52.156866%,38.82353%,52.549022%);fill-opacity:1;" d="M 30.609375 12.507812 C 30.671875 12.507812 30.730469 12.507812 30.792969 12.507812 C 30.851562 12.777344 30.910156 13.046875 30.972656 13.328125 C 30.882812 13.296875 30.792969 13.265625 30.703125 13.238281 C 30.613281 13.28125 30.613281 13.28125 30.519531 13.328125 C 30.550781 13.058594 30.582031 12.785156 30.609375 12.507812 Z M 30.609375 12.507812 "/>
<path style=" stroke:none;fill-rule:nonzero;fill:rgb(44.705883%,41.176471%,45.09804%);fill-opacity:1;" d="M 38.398438 23.550781 C 38.460938 23.707031 38.460938 23.707031 38.492188 23.917969 C 38.371094 24.167969 38.371094 24.167969 38.21875 24.375 C 38.160156 24.375 38.097656 24.375 38.039062 24.375 C 38.007812 24.164062 37.976562 23.953125 37.945312 23.734375 C 38.035156 23.871094 38.035156 23.871094 38.128906 24.007812 C 38.21875 23.859375 38.308594 23.707031 38.398438 23.550781 Z M 38.398438 23.550781 "/>
<path style=" stroke:none;fill-rule:nonzero;fill:rgb(94.901961%,88.235295%,91.37255%);fill-opacity:1;" d="M 31.335938 21.179688 C 31.394531 21.207031 31.457031 21.238281 31.515625 21.269531 C 31.414062 21.375 31.3125 21.484375 31.210938 21.589844 C 31.15625 21.648438 31.097656 21.707031 31.039062 21.769531 C 30.882812 21.910156 30.882812 21.910156 30.703125 21.910156 C 30.835938 21.5625 31.042969 21.398438 31.335938 21.179688 Z M 31.335938 21.179688 "/>
<path style=" stroke:none;fill-rule:nonzero;fill:rgb(92.156863%,66.666669%,70.588237%);fill-opacity:1;" d="M 26.898438 21.542969 C 26.898438 21.816406 26.898438 21.816406 26.808594 22 C 26.6875 22 26.570312 22 26.445312 22 C 26.445312 21.878906 26.445312 21.757812 26.445312 21.636719 C 26.59375 21.605469 26.746094 21.574219 26.898438 21.542969 Z M 26.898438 21.542969 "/>
<path style=" stroke:none;fill-rule:nonzero;fill:rgb(34.901962%,26.274511%,61.56863%);fill-opacity:1;" d="M 18.386719 11.226562 C 18.25 11.574219 18.042969 11.742188 17.75 11.957031 C 18.003906 11.226562 18.003906 11.226562 18.386719 11.226562 Z M 18.386719 11.226562 "/>
<path style=" stroke:none;fill-rule:nonzero;fill:rgb(79.215688%,76.862746%,79.215688%);fill-opacity:1;" d="M 11.773438 21.085938 C 11.832031 21.117188 11.894531 21.148438 11.953125 21.179688 C 11.746094 21.390625 11.535156 21.601562 11.320312 21.816406 C 11.320312 21.542969 11.320312 21.542969 11.546875 21.296875 C 11.621094 21.230469 11.695312 21.160156 11.773438 21.085938 Z M 11.773438 21.085938 "/>
<path style=" stroke:none;fill-rule:nonzero;fill:rgb(98.431373%,89.019608%,89.019608%);fill-opacity:1;" d="M 23.183594 20.8125 C 23.246094 20.84375 23.304688 20.875 23.367188 20.90625 C 23.15625 21.117188 22.949219 21.328125 22.730469 21.542969 C 22.730469 21.269531 22.730469 21.269531 22.957031 21.023438 C 23.035156 20.953125 23.109375 20.886719 23.183594 20.8125 Z M 23.183594 20.8125 "/>
</g>
</svg>
