<?xml version="1.0" encoding="UTF-8"?>
<svg xmlns="http://www.w3.org/2000/svg" xmlns:xlink="http://www.w3.org/1999/xlink" width="46px" height="44px" viewBox="0 0 44 44" version="1.1">
<g id="surface1">
<path style=" stroke:none;fill-rule:nonzero;fill:rgb(74.117649%,87.450981%,98.823529%);fill-opacity:1;" d="M 0 0 C 14.519531 0 29.039062 0 44 0 C 44 14.519531 44 29.039062 44 44 C 29.480469 44 14.960938 44 0 44 C 0 29.480469 0 14.960938 0 0 Z M 0 0 "/>
<path style=" stroke:none;fill-rule:nonzero;fill:rgb(98.823529%,98.823529%,99.215686%);fill-opacity:1;" d="M 21.695312 3.722656 C 21.761719 3.722656 21.828125 3.722656 21.894531 3.722656 C 23.050781 3.722656 24.140625 3.871094 25.257812 4.175781 C 25.320312 4.191406 25.382812 4.207031 25.445312 4.226562 C 26.964844 4.652344 28.457031 5.460938 29.6875 6.449219 C 29.730469 6.484375 29.769531 6.515625 29.8125 6.550781 C 31.164062 7.640625 32.210938 8.886719 33.113281 10.367188 C 33.164062 10.445312 33.210938 10.523438 33.261719 10.605469 C 33.542969 11.066406 33.753906 11.53125 33.9375 12.042969 C 34.023438 12.269531 34.117188 12.488281 34.21875 12.707031 C 34.394531 13.132812 34.507812 13.558594 34.613281 14.003906 C 34.636719 14.101562 34.636719 14.101562 34.660156 14.199219 C 34.863281 15.09375 34.964844 15.976562 34.960938 16.894531 C 34.960938 16.988281 34.960938 17.085938 34.960938 17.183594 C 34.964844 17.441406 34.964844 17.699219 34.964844 17.960938 C 34.964844 18.242188 34.964844 18.519531 34.964844 18.800781 C 34.964844 19.351562 34.964844 19.898438 34.964844 20.449219 C 34.964844 20.894531 34.96875 21.339844 34.96875 21.785156 C 34.96875 23.050781 34.96875 24.316406 34.96875 25.582031 C 34.96875 25.652344 34.96875 25.71875 34.96875 25.789062 C 34.96875 25.855469 34.96875 25.925781 34.96875 25.996094 C 34.96875 27.101562 34.972656 28.207031 34.972656 29.316406 C 34.976562 30.453125 34.976562 31.589844 34.976562 32.726562 C 34.976562 33.367188 34.976562 34.003906 34.976562 34.640625 C 34.980469 35.183594 34.980469 35.726562 34.980469 36.269531 C 34.976562 36.546875 34.976562 36.824219 34.980469 37.101562 C 34.980469 37.398438 34.980469 37.699219 34.980469 38 C 34.980469 38.132812 34.980469 38.132812 34.980469 38.265625 C 34.976562 38.84375 34.886719 39.171875 34.511719 39.617188 C 34.472656 39.652344 34.429688 39.6875 34.390625 39.722656 C 34.351562 39.761719 34.308594 39.796875 34.269531 39.832031 C 33.734375 40.144531 33.117188 40.105469 32.519531 40.105469 C 32.421875 40.105469 32.328125 40.105469 32.226562 40.105469 C 31.957031 40.105469 31.6875 40.105469 31.417969 40.105469 C 31.128906 40.105469 30.835938 40.105469 30.546875 40.109375 C 29.976562 40.109375 29.410156 40.109375 28.839844 40.109375 C 28.378906 40.109375 27.914062 40.109375 27.453125 40.109375 C 26.140625 40.113281 24.828125 40.113281 23.515625 40.113281 C 23.445312 40.113281 23.375 40.113281 23.300781 40.113281 C 23.230469 40.113281 23.160156 40.113281 23.089844 40.113281 C 21.941406 40.113281 20.792969 40.113281 19.644531 40.117188 C 18.46875 40.117188 17.289062 40.117188 16.109375 40.117188 C 15.449219 40.117188 14.789062 40.121094 14.125 40.121094 C 13.5625 40.121094 13 40.121094 12.4375 40.121094 C 12.148438 40.121094 11.863281 40.121094 11.574219 40.121094 C 11.265625 40.125 10.953125 40.121094 10.640625 40.121094 C 10.550781 40.121094 10.460938 40.125 10.367188 40.125 C 9.734375 40.117188 9.339844 40.015625 8.84375 39.59375 C 8.484375 39.15625 8.363281 38.730469 8.363281 38.171875 C 8.363281 38.097656 8.363281 38.019531 8.363281 37.945312 C 8.363281 37.863281 8.363281 37.78125 8.363281 37.699219 C 8.363281 37.613281 8.363281 37.523438 8.363281 37.433594 C 8.363281 37.144531 8.363281 36.851562 8.363281 36.5625 C 8.363281 36.351562 8.363281 36.144531 8.363281 35.933594 C 8.363281 35.425781 8.363281 34.917969 8.363281 34.40625 C 8.363281 33.992188 8.363281 33.578125 8.363281 33.164062 C 8.363281 33.105469 8.363281 33.046875 8.363281 32.988281 C 8.363281 32.867188 8.363281 32.746094 8.363281 32.628906 C 8.363281 31.503906 8.363281 30.378906 8.363281 29.253906 C 8.363281 28.292969 8.363281 27.328125 8.363281 26.367188 C 8.363281 25.246094 8.363281 24.128906 8.363281 23.007812 C 8.363281 22.890625 8.363281 22.769531 8.363281 22.648438 C 8.363281 22.589844 8.363281 22.53125 8.363281 22.472656 C 8.363281 22.058594 8.363281 21.648438 8.363281 21.234375 C 8.363281 20.730469 8.363281 20.226562 8.363281 19.722656 C 8.363281 19.464844 8.363281 19.207031 8.363281 18.949219 C 8.363281 18.058594 8.363281 17.167969 8.40625 16.277344 C 8.410156 16.214844 8.414062 16.15625 8.417969 16.09375 C 8.429688 15.859375 8.453125 15.660156 8.527344 15.433594 C 8.535156 15.3125 8.542969 15.1875 8.550781 15.066406 C 8.59375 14.523438 8.75 14.03125 8.90625 13.515625 C 8.929688 13.433594 8.953125 13.351562 8.976562 13.269531 C 9.457031 11.574219 10.324219 10.042969 11.417969 8.675781 C 11.457031 8.628906 11.496094 8.582031 11.535156 8.53125 C 12.992188 6.722656 14.890625 5.367188 17.050781 4.53125 C 17.136719 4.496094 17.21875 4.464844 17.304688 4.429688 C 17.597656 4.324219 17.894531 4.230469 18.195312 4.148438 C 18.253906 4.128906 18.316406 4.109375 18.378906 4.09375 C 19.484375 3.785156 20.558594 3.726562 21.695312 3.722656 Z M 21.695312 3.722656 "/>
<path style=" stroke:none;fill-rule:nonzero;fill:rgb(98.431373%,98.823529%,99.215686%);fill-opacity:1;" d="M 21.410156 2.972656 C 21.46875 2.972656 21.53125 2.972656 21.59375 2.972656 C 24.65625 2.984375 27.625 3.835938 30.070312 5.757812 C 30.132812 5.808594 30.195312 5.855469 30.257812 5.90625 C 31.890625 7.1875 33.617188 8.925781 34.328125 10.929688 C 34.414062 11.144531 34.515625 11.34375 34.625 11.546875 C 34.890625 12.078125 35.042969 12.617188 35.1875 13.1875 C 35.203125 13.238281 35.214844 13.289062 35.226562 13.339844 C 35.421875 14.089844 35.570312 14.816406 35.625 15.589844 C 35.632812 15.648438 35.636719 15.703125 35.644531 15.765625 C 35.699219 16.3125 35.714844 16.851562 35.710938 17.402344 C 35.710938 17.496094 35.714844 17.589844 35.714844 17.6875 C 35.714844 17.945312 35.714844 18.207031 35.714844 18.464844 C 35.714844 18.742188 35.714844 19.023438 35.714844 19.304688 C 35.714844 19.851562 35.714844 20.398438 35.714844 20.945312 C 35.714844 21.390625 35.714844 21.835938 35.714844 22.28125 C 35.714844 23.542969 35.714844 24.808594 35.714844 26.070312 C 35.714844 26.171875 35.714844 26.171875 35.714844 26.277344 C 35.714844 26.34375 35.714844 26.414062 35.714844 26.484375 C 35.714844 27.585938 35.71875 28.691406 35.71875 29.796875 C 35.71875 30.929688 35.71875 32.066406 35.71875 33.199219 C 35.71875 33.835938 35.71875 34.472656 35.722656 35.109375 C 35.722656 35.652344 35.722656 36.191406 35.722656 36.734375 C 35.722656 37.011719 35.722656 37.289062 35.722656 37.5625 C 35.722656 37.863281 35.722656 38.164062 35.722656 38.460938 C 35.722656 38.550781 35.722656 38.636719 35.722656 38.726562 C 35.71875 39.375 35.660156 39.867188 35.246094 40.390625 C 34.867188 40.679688 34.601562 40.785156 34.132812 40.785156 C 33.996094 40.785156 33.996094 40.785156 33.859375 40.785156 C 33.757812 40.785156 33.660156 40.785156 33.558594 40.785156 C 33.449219 40.785156 33.34375 40.785156 33.238281 40.785156 C 32.945312 40.789062 32.652344 40.789062 32.359375 40.789062 C 32.042969 40.789062 31.730469 40.789062 31.414062 40.789062 C 30.652344 40.792969 29.890625 40.792969 29.128906 40.792969 C 28.769531 40.792969 28.410156 40.792969 28.050781 40.792969 C 26.859375 40.796875 25.667969 40.796875 24.476562 40.796875 C 24.164062 40.796875 23.855469 40.796875 23.546875 40.796875 C 23.429688 40.796875 23.429688 40.796875 23.3125 40.796875 C 22.066406 40.796875 20.820312 40.800781 19.574219 40.800781 C 18.296875 40.804688 17.015625 40.808594 15.738281 40.808594 C 15.019531 40.808594 14.300781 40.808594 13.582031 40.808594 C 12.972656 40.8125 12.359375 40.8125 11.746094 40.8125 C 11.4375 40.8125 11.125 40.8125 10.8125 40.8125 C 10.527344 40.8125 10.238281 40.8125 9.953125 40.8125 C 9.800781 40.8125 9.648438 40.8125 9.496094 40.816406 C 8.980469 40.8125 8.640625 40.789062 8.222656 40.46875 C 7.664062 39.878906 7.578125 39.414062 7.585938 38.628906 C 7.585938 38.535156 7.582031 38.441406 7.582031 38.34375 C 7.582031 38.085938 7.582031 37.828125 7.585938 37.570312 C 7.585938 37.292969 7.585938 37.011719 7.585938 36.734375 C 7.585938 36.1875 7.585938 35.640625 7.585938 35.097656 C 7.585938 34.460938 7.585938 33.824219 7.585938 33.1875 C 7.589844 32.046875 7.589844 30.910156 7.589844 29.773438 C 7.59375 28.671875 7.59375 27.570312 7.59375 26.46875 C 7.59375 26.402344 7.59375 26.332031 7.59375 26.265625 C 7.59375 26.128906 7.59375 25.992188 7.59375 25.855469 C 7.59375 25.789062 7.59375 25.71875 7.59375 25.652344 C 7.59375 25.550781 7.59375 25.550781 7.59375 25.445312 C 7.59375 24.394531 7.59375 23.34375 7.597656 22.292969 C 7.597656 21.910156 7.597656 21.53125 7.597656 21.152344 C 7.597656 20.546875 7.597656 19.941406 7.597656 19.339844 C 7.601562 19.0625 7.601562 18.789062 7.601562 18.511719 C 7.601562 15.535156 7.601562 15.535156 7.855469 14.324219 C 7.871094 14.246094 7.890625 14.164062 7.90625 14.078125 C 8.148438 12.941406 8.519531 11.921875 9.058594 10.894531 C 9.132812 10.753906 9.199219 10.613281 9.269531 10.46875 C 10.769531 7.296875 13.742188 4.953125 16.953125 3.734375 C 17.679688 3.472656 18.425781 3.296875 19.183594 3.148438 C 19.25 3.132812 19.316406 3.121094 19.382812 3.105469 C 20.058594 2.976562 20.726562 2.96875 21.410156 2.972656 Z M 18.195312 4.148438 C 18.132812 4.164062 18.070312 4.179688 18.007812 4.199219 C 15.433594 4.929688 12.957031 6.597656 11.34375 8.753906 C 11.277344 8.839844 11.207031 8.925781 11.140625 9.015625 C 9.820312 10.75 8.675781 13.046875 8.542969 15.257812 C 8.527344 15.433594 8.527344 15.433594 8.449219 15.664062 C 8.433594 15.871094 8.417969 16.070312 8.40625 16.277344 C 8.40625 16.339844 8.402344 16.402344 8.398438 16.46875 C 8.355469 17.394531 8.363281 18.320312 8.363281 19.242188 C 8.359375 19.453125 8.359375 19.664062 8.359375 19.875 C 8.359375 20.441406 8.359375 21.007812 8.359375 21.574219 C 8.359375 21.925781 8.359375 22.28125 8.359375 22.636719 C 8.355469 23.617188 8.355469 24.601562 8.355469 25.585938 C 8.355469 25.648438 8.355469 25.710938 8.355469 25.773438 C 8.355469 25.835938 8.355469 25.898438 8.355469 25.964844 C 8.355469 26.089844 8.355469 26.21875 8.355469 26.34375 C 8.355469 26.40625 8.355469 26.472656 8.355469 26.535156 C 8.355469 27.558594 8.355469 28.585938 8.351562 29.609375 C 8.351562 30.664062 8.347656 31.71875 8.347656 32.769531 C 8.347656 33.363281 8.347656 33.953125 8.347656 34.542969 C 8.347656 35.046875 8.34375 35.546875 8.347656 36.050781 C 8.347656 36.304688 8.347656 36.5625 8.34375 36.820312 C 8.34375 37.097656 8.34375 37.375 8.347656 37.652344 C 8.34375 37.730469 8.34375 37.8125 8.34375 37.894531 C 8.347656 38.484375 8.402344 39.0625 8.777344 39.535156 C 9.203125 39.878906 9.515625 40.09375 10.066406 40.09375 C 10.148438 40.09375 10.230469 40.09375 10.316406 40.09375 C 10.410156 40.09375 10.5 40.09375 10.59375 40.09375 C 10.742188 40.09375 10.742188 40.09375 10.890625 40.09375 C 11.160156 40.097656 11.429688 40.097656 11.699219 40.097656 C 11.988281 40.097656 12.28125 40.097656 12.570312 40.097656 C 13.207031 40.097656 13.84375 40.097656 14.480469 40.097656 C 14.878906 40.097656 15.273438 40.101562 15.671875 40.101562 C 16.769531 40.101562 17.871094 40.101562 18.972656 40.101562 C 19.078125 40.101562 19.078125 40.101562 19.183594 40.101562 C 19.253906 40.101562 19.324219 40.101562 19.398438 40.101562 C 19.542969 40.101562 19.683594 40.101562 19.828125 40.101562 C 19.898438 40.101562 19.96875 40.101562 20.042969 40.101562 C 21.191406 40.101562 22.339844 40.105469 23.488281 40.105469 C 24.667969 40.109375 25.847656 40.109375 27.03125 40.109375 C 27.691406 40.109375 28.355469 40.109375 29.015625 40.109375 C 29.582031 40.113281 30.144531 40.113281 30.710938 40.113281 C 30.996094 40.109375 31.285156 40.109375 31.574219 40.113281 C 31.886719 40.113281 32.195312 40.113281 32.507812 40.113281 C 32.601562 40.113281 32.691406 40.113281 32.785156 40.113281 C 33.386719 40.109375 34.007812 40.0625 34.476562 39.636719 C 34.515625 39.601562 34.554688 39.566406 34.597656 39.53125 C 34.992188 39.058594 34.972656 38.597656 34.96875 38.011719 C 34.96875 37.917969 34.972656 37.824219 34.972656 37.726562 C 34.972656 37.46875 34.972656 37.210938 34.972656 36.949219 C 34.96875 36.671875 34.972656 36.390625 34.972656 36.113281 C 34.972656 35.566406 34.972656 35.015625 34.972656 34.46875 C 34.972656 34.023438 34.972656 33.578125 34.972656 33.132812 C 34.972656 33.070312 34.972656 33.003906 34.972656 32.941406 C 34.972656 32.8125 34.972656 32.683594 34.972656 32.554688 C 34.972656 31.34375 34.972656 30.132812 34.972656 28.925781 C 34.96875 27.886719 34.96875 26.851562 34.972656 25.816406 C 34.972656 24.613281 34.972656 23.410156 34.972656 22.203125 C 34.972656 22.074219 34.972656 21.945312 34.972656 21.816406 C 34.972656 21.722656 34.972656 21.722656 34.972656 21.625 C 34.972656 21.183594 34.972656 20.738281 34.972656 20.292969 C 34.972656 19.75 34.972656 19.207031 34.972656 18.664062 C 34.972656 18.390625 34.972656 18.113281 34.972656 17.835938 C 34.972656 16.707031 34.953125 15.621094 34.710938 14.511719 C 34.6875 14.394531 34.664062 14.273438 34.640625 14.15625 C 34.519531 13.578125 34.363281 13.046875 34.125 12.507812 C 34.023438 12.273438 33.9375 12.039062 33.851562 11.796875 C 33.316406 10.386719 32.367188 9.09375 31.363281 7.984375 C 31.308594 7.925781 31.308594 7.925781 31.25 7.863281 C 30.292969 6.820312 29.171875 5.976562 27.9375 5.296875 C 27.882812 5.269531 27.832031 5.238281 27.777344 5.210938 C 26.175781 4.335938 24.378906 3.765625 22.550781 3.742188 C 22.488281 3.742188 22.421875 3.738281 22.359375 3.738281 C 20.925781 3.722656 19.582031 3.746094 18.195312 4.148438 Z M 18.195312 4.148438 "/>
<path style=" stroke:none;fill-rule:nonzero;fill:rgb(0.784314%,12.941177%,25.490198%);fill-opacity:1;" d="M 21.164062 8.214844 C 21.171875 8.855469 21.148438 9.484375 21.097656 10.121094 C 21.089844 10.210938 21.082031 10.296875 21.074219 10.390625 C 21.039062 10.828125 20.996094 11.265625 20.933594 11.699219 C 20.839844 12.34375 20.804688 12.992188 20.761719 13.640625 C 20.71875 14.320312 20.652344 14.992188 20.554688 15.664062 C 20.503906 15.664062 20.453125 15.664062 20.402344 15.664062 C 20.402344 15.765625 20.402344 15.867188 20.402344 15.972656 C 20.078125 15.933594 19.882812 15.730469 19.648438 15.519531 C 19.300781 15.214844 18.945312 14.917969 18.578125 14.632812 C 18.164062 14.304688 17.757812 13.964844 17.359375 13.617188 C 17.023438 13.324219 16.683594 13.039062 16.339844 12.757812 C 16.203125 12.644531 16.066406 12.53125 15.929688 12.417969 C 15.453125 12.023438 14.96875 11.648438 14.464844 11.289062 C 14.976562 11.996094 15.519531 12.671875 16.074219 13.34375 C 16.300781 13.621094 16.527344 13.894531 16.753906 14.171875 C 16.796875 14.226562 16.839844 14.28125 16.886719 14.335938 C 17.230469 14.757812 17.574219 15.183594 17.917969 15.613281 C 18.109375 15.851562 18.300781 16.085938 18.5 16.324219 C 18.535156 16.363281 18.570312 16.40625 18.605469 16.449219 C 18.699219 16.5625 18.796875 16.675781 18.890625 16.789062 C 19.03125 16.96875 19.03125 16.96875 19.105469 17.199219 C 18.277344 17.5625 17.367188 17.605469 16.472656 17.691406 C 16.324219 17.703125 16.175781 17.71875 16.027344 17.730469 C 15.820312 17.75 15.613281 17.769531 15.402344 17.789062 C 15.136719 17.816406 14.867188 17.839844 14.597656 17.867188 C 14.542969 17.871094 14.492188 17.875 14.4375 17.882812 C 14.328125 17.890625 14.21875 17.902344 14.113281 17.914062 C 13.953125 17.929688 13.789062 17.941406 13.628906 17.957031 C 12.992188 18.019531 12.359375 18.078125 11.722656 18.144531 C 11.648438 18.152344 11.574219 18.160156 11.5 18.164062 C 11.230469 18.191406 10.960938 18.21875 10.691406 18.246094 C 10.515625 18.265625 10.335938 18.285156 10.15625 18.300781 C 10.011719 18.316406 10.011719 18.316406 9.863281 18.332031 C 9.59375 18.351562 9.328125 18.355469 9.058594 18.351562 C 9.011719 15.738281 9.597656 13.421875 11.394531 11.457031 C 13.945312 8.992188 17.714844 8.078125 21.164062 8.214844 Z M 21.164062 8.214844 "/>
<path style=" stroke:none;fill-rule:nonzero;fill:rgb(0.784314%,12.941177%,25.098041%);fill-opacity:1;" d="M 8.984375 18.738281 C 9.867188 18.785156 10.75 18.859375 11.636719 18.945312 C 11.769531 18.960938 11.90625 18.972656 12.039062 18.988281 C 12.324219 19.015625 12.605469 19.042969 12.886719 19.070312 C 13.171875 19.097656 13.457031 19.125 13.742188 19.152344 C 16.4375 19.410156 16.4375 19.410156 17.636719 19.554688 C 17.710938 19.5625 17.785156 19.570312 17.863281 19.578125 C 18.84375 19.699219 18.84375 19.699219 19.105469 19.964844 C 18.558594 20.660156 18.007812 21.34375 17.441406 22.023438 C 17.160156 22.363281 16.886719 22.707031 16.617188 23.054688 C 16.359375 23.390625 16.09375 23.71875 15.8125 24.035156 C 15.300781 24.625 14.835938 25.242188 14.386719 25.878906 C 14.851562 25.585938 15.261719 25.230469 15.683594 24.878906 C 15.8125 24.773438 15.941406 24.664062 16.070312 24.558594 C 16.4375 24.257812 16.800781 23.953125 17.167969 23.652344 C 17.597656 23.292969 18.027344 22.9375 18.457031 22.582031 C 18.589844 22.472656 18.726562 22.359375 18.859375 22.25 C 19.070312 22.074219 19.277344 21.902344 19.488281 21.730469 C 19.558594 21.671875 19.628906 21.613281 19.703125 21.550781 C 19.773438 21.496094 19.839844 21.4375 19.910156 21.382812 C 19.972656 21.332031 20.035156 21.28125 20.097656 21.226562 C 20.25 21.117188 20.25 21.117188 20.402344 21.117188 C 20.515625 21.328125 20.574219 21.496094 20.597656 21.734375 C 20.601562 21.796875 20.609375 21.855469 20.617188 21.917969 C 20.621094 21.980469 20.625 22.046875 20.632812 22.113281 C 20.640625 22.210938 20.640625 22.210938 20.652344 22.316406 C 20.671875 22.527344 20.691406 22.742188 20.710938 22.953125 C 20.730469 23.167969 20.75 23.382812 20.769531 23.59375 C 20.78125 23.726562 20.796875 23.859375 20.808594 23.992188 C 20.835938 24.292969 20.871094 24.582031 20.933594 24.878906 C 20.945312 24.984375 20.953125 25.085938 20.957031 25.191406 C 20.964844 25.277344 20.964844 25.277344 20.96875 25.363281 C 20.972656 25.421875 20.972656 25.480469 20.976562 25.542969 C 20.980469 25.597656 20.984375 25.65625 20.988281 25.714844 C 21.003906 26.046875 21.011719 26.375 21.011719 26.707031 C 21.011719 26.820312 21.011719 26.820312 21.011719 26.933594 C 21.011719 26.992188 21.011719 27.046875 21.011719 27.105469 C 19.601562 27.113281 18.191406 27.117188 16.785156 27.121094 C 16.128906 27.125 15.476562 27.125 14.820312 27.128906 C 14.25 27.132812 13.679688 27.132812 13.109375 27.136719 C 12.808594 27.136719 12.507812 27.136719 12.203125 27.140625 C 11.921875 27.140625 11.636719 27.140625 11.351562 27.140625 C 11.199219 27.140625 11.042969 27.144531 10.890625 27.144531 C 10.292969 27.140625 9.824219 27.105469 9.378906 26.664062 C 9.335938 26.597656 9.335938 26.597656 9.296875 26.53125 C 9.253906 26.464844 9.253906 26.464844 9.210938 26.398438 C 9.066406 26.136719 8.964844 25.949219 8.964844 25.644531 C 8.964844 25.582031 8.964844 25.519531 8.964844 25.457031 C 8.964844 25.390625 8.964844 25.324219 8.964844 25.257812 C 8.964844 25.152344 8.964844 25.152344 8.964844 25.042969 C 8.964844 24.8125 8.964844 24.578125 8.96875 24.34375 C 8.96875 24.183594 8.96875 24.023438 8.96875 23.863281 C 8.96875 23.4375 8.96875 23.011719 8.972656 22.585938 C 8.972656 22.152344 8.972656 21.71875 8.976562 21.289062 C 8.976562 20.4375 8.980469 19.585938 8.984375 18.738281 Z M 8.984375 18.738281 "/>
<path style=" stroke:none;fill-rule:nonzero;fill:rgb(0.784314%,12.941177%,25.098041%);fill-opacity:1;" d="M 22.074219 8.214844 C 23.617188 8.167969 25.121094 8.339844 26.617188 8.710938 C 26.769531 8.746094 26.921875 8.78125 27.074219 8.816406 C 27.621094 8.941406 28.113281 9.136719 28.621094 9.367188 C 28.671875 9.390625 28.722656 9.414062 28.773438 9.4375 C 30.785156 10.335938 32.550781 11.730469 33.417969 13.820312 C 33.46875 13.917969 33.519531 14.015625 33.570312 14.109375 C 33.757812 14.484375 33.859375 14.878906 33.964844 15.285156 C 33.984375 15.359375 34.003906 15.433594 34.027344 15.507812 C 34.207031 16.195312 34.265625 16.832031 34.261719 17.542969 C 34.261719 17.621094 34.261719 17.699219 34.261719 17.777344 C 34.257812 17.96875 34.257812 18.160156 34.257812 18.351562 C 33.734375 18.363281 33.234375 18.324219 32.71875 18.261719 C 31.414062 18.113281 30.109375 17.996094 28.804688 17.875 C 27.949219 17.796875 27.09375 17.714844 26.238281 17.617188 C 26.007812 17.589844 25.773438 17.566406 25.539062 17.542969 C 25.453125 17.535156 25.453125 17.535156 25.371094 17.527344 C 25.261719 17.515625 25.152344 17.507812 25.042969 17.5 C 24.710938 17.464844 24.480469 17.398438 24.207031 17.199219 C 24.417969 16.867188 24.648438 16.5625 24.90625 16.265625 C 24.980469 16.175781 25.054688 16.089844 25.132812 16 C 25.1875 15.933594 25.1875 15.933594 25.242188 15.867188 C 25.511719 15.550781 25.773438 15.222656 26.035156 14.898438 C 26.148438 14.753906 26.265625 14.613281 26.382812 14.46875 C 26.597656 14.207031 26.808594 13.941406 27.019531 13.671875 C 27.242188 13.390625 27.472656 13.109375 27.703125 12.832031 C 28.078125 12.382812 28.429688 11.917969 28.773438 11.441406 C 28.40625 11.558594 28.167969 11.773438 27.886719 12.027344 C 27.789062 12.113281 27.695312 12.195312 27.597656 12.28125 C 27.550781 12.320312 27.503906 12.363281 27.457031 12.402344 C 27.296875 12.546875 27.128906 12.679688 26.960938 12.8125 C 26.613281 13.09375 26.269531 13.378906 25.925781 13.664062 C 25.867188 13.710938 25.8125 13.757812 25.753906 13.804688 C 25.644531 13.898438 25.535156 13.988281 25.425781 14.082031 C 25.09375 14.355469 24.765625 14.625 24.4375 14.898438 C 24.289062 15.019531 24.140625 15.140625 23.992188 15.261719 C 23.925781 15.316406 23.855469 15.375 23.785156 15.433594 C 23.632812 15.5625 23.480469 15.691406 23.328125 15.824219 C 23.140625 15.972656 23.140625 15.972656 22.988281 15.972656 C 22.816406 15.6875 22.796875 15.398438 22.765625 15.074219 C 22.753906 14.949219 22.742188 14.820312 22.726562 14.695312 C 22.722656 14.628906 22.714844 14.558594 22.707031 14.492188 C 22.675781 14.210938 22.644531 13.933594 22.609375 13.65625 C 22.472656 12.546875 22.363281 11.4375 22.253906 10.328125 C 22.25 10.261719 22.242188 10.195312 22.238281 10.128906 C 22.226562 10.007812 22.214844 9.886719 22.203125 9.761719 C 22.171875 9.449219 22.128906 9.140625 22.074219 8.832031 C 22.066406 8.625 22.074219 8.421875 22.074219 8.214844 Z M 22.074219 8.214844 "/>
<path style=" stroke:none;fill-rule:nonzero;fill:rgb(0.392157%,12.54902%,25.098041%);fill-opacity:1;" d="M 34.257812 18.738281 C 34.265625 19.664062 34.273438 20.59375 34.277344 21.523438 C 34.277344 21.957031 34.28125 22.386719 34.285156 22.820312 C 34.289062 23.234375 34.292969 23.652344 34.292969 24.070312 C 34.292969 24.226562 34.292969 24.386719 34.296875 24.542969 C 34.300781 24.769531 34.300781 24.992188 34.300781 25.214844 C 34.300781 25.3125 34.300781 25.3125 34.304688 25.410156 C 34.300781 25.898438 34.15625 26.246094 33.875 26.644531 C 33.511719 27.003906 33.164062 27.125 32.65625 27.125 C 32.519531 27.125 32.519531 27.125 32.378906 27.125 C 32.28125 27.125 32.179688 27.125 32.078125 27.125 C 31.972656 27.125 31.867188 27.125 31.757812 27.125 C 31.46875 27.125 31.179688 27.125 30.894531 27.121094 C 30.589844 27.121094 30.289062 27.121094 29.988281 27.121094 C 29.414062 27.121094 28.84375 27.117188 28.273438 27.117188 C 27.621094 27.117188 26.972656 27.113281 26.320312 27.113281 C 24.980469 27.113281 23.644531 27.109375 22.304688 27.105469 C 22.316406 26.898438 22.328125 26.6875 22.339844 26.476562 C 22.34375 26.390625 22.34375 26.390625 22.351562 26.296875 C 22.375 25.898438 22.40625 25.5 22.453125 25.101562 C 22.503906 24.621094 22.542969 24.140625 22.570312 23.660156 C 22.570312 23.605469 22.574219 23.554688 22.578125 23.5 C 22.59375 23.234375 22.605469 22.972656 22.617188 22.707031 C 22.648438 22.1875 22.675781 21.738281 22.914062 21.269531 C 23.027344 21.234375 23.027344 21.234375 23.140625 21.195312 C 23.300781 21.300781 23.300781 21.300781 23.492188 21.46875 C 23.605469 21.5625 23.605469 21.5625 23.71875 21.660156 C 23.761719 21.695312 23.800781 21.734375 23.84375 21.769531 C 24.09375 21.984375 24.347656 22.191406 24.597656 22.398438 C 24.710938 22.492188 24.820312 22.582031 24.933594 22.675781 C 24.988281 22.722656 25.042969 22.769531 25.101562 22.816406 C 25.214844 22.914062 25.332031 23.007812 25.445312 23.101562 C 26.328125 23.835938 26.328125 23.835938 27.210938 24.566406 C 27.347656 24.679688 27.484375 24.792969 27.617188 24.90625 C 28.039062 25.257812 28.464844 25.582031 28.925781 25.878906 C 28.609375 25.394531 28.261719 24.941406 27.886719 24.503906 C 27.628906 24.203125 27.382812 23.894531 27.144531 23.578125 C 26.816406 23.15625 26.480469 22.75 26.132812 22.34375 C 25.863281 22.027344 25.601562 21.707031 25.34375 21.382812 C 25.179688 21.167969 25.007812 20.960938 24.835938 20.753906 C 24.609375 20.472656 24.398438 20.195312 24.207031 19.886719 C 24.664062 19.65625 25.078125 19.601562 25.582031 19.554688 C 25.667969 19.546875 25.75 19.539062 25.835938 19.53125 C 26.109375 19.503906 26.382812 19.480469 26.65625 19.453125 C 26.847656 19.433594 27.039062 19.417969 27.230469 19.398438 C 27.683594 19.355469 28.132812 19.3125 28.585938 19.269531 C 29.246094 19.207031 29.90625 19.144531 30.570312 19.082031 C 31.042969 19.035156 31.519531 18.988281 31.992188 18.945312 C 32.164062 18.929688 32.335938 18.914062 32.507812 18.894531 C 32.625 18.886719 32.625 18.886719 32.746094 18.875 C 33.03125 18.847656 33.3125 18.820312 33.59375 18.769531 C 33.816406 18.734375 34.03125 18.730469 34.257812 18.738281 Z M 34.257812 18.738281 "/>
<path style=" stroke:none;fill-rule:nonzero;fill:rgb(37.64706%,45.09804%,52.941179%);fill-opacity:1;" d="M 21.695312 3.722656 C 21.761719 3.722656 21.828125 3.722656 21.894531 3.722656 C 23.050781 3.722656 24.140625 3.871094 25.257812 4.175781 C 25.320312 4.191406 25.382812 4.207031 25.445312 4.226562 C 26.964844 4.652344 28.457031 5.460938 29.6875 6.449219 C 29.730469 6.484375 29.769531 6.515625 29.8125 6.550781 C 31.164062 7.640625 32.210938 8.886719 33.113281 10.367188 C 33.164062 10.445312 33.210938 10.523438 33.261719 10.605469 C 33.542969 11.066406 33.753906 11.53125 33.9375 12.042969 C 34.023438 12.269531 34.117188 12.488281 34.21875 12.707031 C 34.394531 13.132812 34.507812 13.558594 34.613281 14.003906 C 34.636719 14.101562 34.636719 14.101562 34.660156 14.199219 C 34.863281 15.09375 34.964844 15.976562 34.960938 16.894531 C 34.960938 16.988281 34.960938 17.085938 34.960938 17.183594 C 34.964844 17.441406 34.964844 17.699219 34.964844 17.960938 C 34.964844 18.242188 34.964844 18.519531 34.964844 18.800781 C 34.964844 19.351562 34.964844 19.898438 34.964844 20.449219 C 34.964844 20.894531 34.96875 21.339844 34.96875 21.785156 C 34.96875 23.050781 34.96875 24.316406 34.96875 25.582031 C 34.96875 25.652344 34.96875 25.71875 34.96875 25.789062 C 34.96875 25.855469 34.96875 25.925781 34.96875 25.996094 C 34.96875 27.101562 34.972656 28.207031 34.972656 29.316406 C 34.976562 30.453125 34.976562 31.589844 34.976562 32.726562 C 34.976562 33.367188 34.976562 34.003906 34.976562 34.640625 C 34.980469 35.183594 34.980469 35.726562 34.980469 36.269531 C 34.976562 36.546875 34.976562 36.824219 34.980469 37.101562 C 34.980469 37.398438 34.980469 37.699219 34.980469 38 C 34.980469 38.132812 34.980469 38.132812 34.980469 38.265625 C 34.976562 38.84375 34.886719 39.171875 34.511719 39.617188 C 34.472656 39.652344 34.429688 39.6875 34.390625 39.722656 C 34.351562 39.761719 34.308594 39.796875 34.269531 39.832031 C 33.734375 40.144531 33.117188 40.105469 32.519531 40.105469 C 32.421875 40.105469 32.328125 40.105469 32.226562 40.105469 C 31.957031 40.105469 31.6875 40.105469 31.417969 40.105469 C 31.128906 40.105469 30.835938 40.105469 30.546875 40.109375 C 29.976562 40.109375 29.410156 40.109375 28.839844 40.109375 C 28.378906 40.109375 27.914062 40.109375 27.453125 40.109375 C 26.140625 40.113281 24.828125 40.113281 23.515625 40.113281 C 23.445312 40.113281 23.375 40.113281 23.300781 40.113281 C 23.230469 40.113281 23.160156 40.113281 23.089844 40.113281 C 21.941406 40.113281 20.792969 40.113281 19.644531 40.117188 C 18.46875 40.117188 17.289062 40.117188 16.109375 40.117188 C 15.449219 40.117188 14.789062 40.121094 14.125 40.121094 C 13.5625 40.121094 13 40.121094 12.4375 40.121094 C 12.148438 40.121094 11.863281 40.121094 11.574219 40.121094 C 11.265625 40.125 10.953125 40.121094 10.640625 40.121094 C 10.550781 40.121094 10.460938 40.125 10.367188 40.125 C 9.734375 40.117188 9.339844 40.015625 8.84375 39.59375 C 8.484375 39.15625 8.363281 38.726562 8.363281 38.167969 C 8.363281 38.09375 8.363281 38.019531 8.363281 37.941406 C 8.363281 37.859375 8.363281 37.777344 8.363281 37.695312 C 8.363281 37.609375 8.363281 37.519531 8.363281 37.429688 C 8.363281 37.136719 8.363281 36.84375 8.363281 36.550781 C 8.363281 36.34375 8.363281 36.132812 8.363281 35.921875 C 8.363281 35.414062 8.363281 34.902344 8.363281 34.390625 C 8.363281 33.976562 8.363281 33.558594 8.363281 33.144531 C 8.363281 33.085938 8.363281 33.027344 8.363281 32.964844 C 8.363281 32.84375 8.363281 32.726562 8.363281 32.605469 C 8.363281 31.476562 8.363281 30.351562 8.363281 29.222656 C 8.363281 28.257812 8.363281 27.292969 8.363281 26.324219 C 8.363281 25.203125 8.363281 24.082031 8.363281 22.957031 C 8.363281 22.839844 8.363281 22.71875 8.363281 22.597656 C 8.363281 22.539062 8.363281 22.480469 8.363281 22.421875 C 8.363281 22.007812 8.363281 21.589844 8.363281 21.175781 C 8.363281 20.671875 8.363281 20.164062 8.363281 19.660156 C 8.363281 19.402344 8.363281 19.144531 8.363281 18.886719 C 8.363281 18.605469 8.363281 18.324219 8.363281 18.046875 C 8.363281 17.964844 8.363281 17.882812 8.363281 17.800781 C 8.363281 17.265625 8.398438 16.734375 8.449219 16.203125 C 8.476562 16.203125 8.5 16.203125 8.527344 16.203125 C 8.527344 16.25 8.527344 16.296875 8.527344 16.347656 C 8.53125 19.152344 8.535156 21.960938 8.542969 24.769531 C 8.542969 25.105469 8.546875 25.445312 8.546875 25.78125 C 8.546875 25.847656 8.546875 25.914062 8.546875 25.984375 C 8.550781 27.070312 8.550781 28.160156 8.550781 29.246094 C 8.554688 30.359375 8.558594 31.476562 8.558594 32.589844 C 8.5625 33.277344 8.5625 33.96875 8.5625 34.65625 C 8.5625 35.128906 8.566406 35.597656 8.566406 36.070312 C 8.570312 36.34375 8.570312 36.613281 8.570312 36.886719 C 8.570312 37.183594 8.570312 37.476562 8.570312 37.773438 C 8.570312 37.859375 8.570312 37.945312 8.570312 38.035156 C 8.574219 38.566406 8.609375 39.046875 8.960938 39.472656 C 9.007812 39.507812 9.050781 39.542969 9.097656 39.578125 C 9.164062 39.632812 9.164062 39.632812 9.234375 39.691406 C 9.484375 39.855469 9.703125 39.863281 9.996094 39.863281 C 10.121094 39.863281 10.121094 39.863281 10.253906 39.863281 C 10.390625 39.863281 10.390625 39.863281 10.535156 39.863281 C 10.632812 39.863281 10.730469 39.867188 10.832031 39.867188 C 11.109375 39.867188 11.382812 39.867188 11.65625 39.867188 C 11.953125 39.867188 12.25 39.867188 12.542969 39.867188 C 13.257812 39.871094 13.972656 39.871094 14.6875 39.871094 C 15.023438 39.871094 15.359375 39.871094 15.699219 39.871094 C 16.816406 39.875 17.933594 39.875 19.050781 39.875 C 19.34375 39.875 19.632812 39.875 19.921875 39.875 C 20.03125 39.875 20.03125 39.875 20.140625 39.875 C 21.308594 39.875 22.476562 39.878906 23.648438 39.882812 C 24.847656 39.882812 26.046875 39.886719 27.246094 39.886719 C 27.917969 39.886719 28.59375 39.886719 29.265625 39.886719 C 29.839844 39.890625 30.414062 39.890625 30.988281 39.890625 C 31.28125 39.890625 31.574219 39.890625 31.867188 39.890625 C 32.183594 39.894531 32.5 39.890625 32.816406 39.890625 C 32.910156 39.890625 33.003906 39.890625 33.097656 39.894531 C 33.601562 39.890625 33.9375 39.875 34.332031 39.546875 C 34.765625 39.078125 34.765625 38.59375 34.757812 37.980469 C 34.757812 37.886719 34.761719 37.792969 34.761719 37.695312 C 34.761719 37.433594 34.761719 37.171875 34.757812 36.910156 C 34.757812 36.625 34.757812 36.34375 34.757812 36.058594 C 34.757812 35.507812 34.757812 34.953125 34.753906 34.398438 C 34.753906 33.753906 34.75 33.109375 34.75 32.464844 C 34.75 31.316406 34.75 30.167969 34.746094 29.019531 C 34.742188 27.902344 34.742188 26.789062 34.738281 25.671875 C 34.738281 25.601562 34.738281 25.535156 34.738281 25.464844 C 34.738281 25.1875 34.738281 24.910156 34.738281 24.632812 C 34.738281 23.441406 34.734375 22.25 34.734375 21.058594 C 34.734375 20.867188 34.734375 20.675781 34.734375 20.480469 C 34.730469 19.804688 34.730469 19.128906 34.730469 18.453125 C 34.726562 18.175781 34.726562 17.894531 34.726562 17.617188 C 34.726562 17.316406 34.726562 17.011719 34.722656 16.710938 C 34.722656 16.621094 34.722656 16.53125 34.722656 16.441406 C 34.722656 16.320312 34.722656 16.320312 34.722656 16.195312 C 34.722656 16.09375 34.722656 16.09375 34.722656 15.984375 C 34.722656 15.816406 34.722656 15.816406 34.636719 15.664062 C 34.617188 15.515625 34.597656 15.363281 34.578125 15.214844 C 34.515625 14.730469 34.414062 14.261719 34.300781 13.789062 C 34.285156 13.722656 34.269531 13.660156 34.25 13.59375 C 34.15625 13.214844 34.035156 12.871094 33.875 12.515625 C 33.835938 12.394531 33.796875 12.273438 33.757812 12.152344 C 33.230469 10.6875 32.34375 9.34375 31.289062 8.214844 C 31.203125 8.113281 31.117188 8.011719 31.03125 7.910156 C 29.207031 5.8125 26.441406 4.523438 23.75 4.070312 C 23.679688 4.054688 23.609375 4.039062 23.539062 4.023438 C 20.601562 3.402344 17.175781 4.351562 14.6875 5.933594 C 14.074219 6.347656 13.503906 6.816406 12.941406 7.296875 C 12.886719 7.339844 12.832031 7.382812 12.777344 7.429688 C 12.339844 7.792969 11.996094 8.226562 11.648438 8.675781 C 11.585938 8.75 11.527344 8.824219 11.464844 8.902344 C 10.628906 9.949219 10.011719 11.121094 9.515625 12.363281 C 9.480469 12.449219 9.441406 12.535156 9.402344 12.625 C 9.171875 13.199219 9.050781 13.746094 8.984375 14.359375 C 8.933594 14.359375 8.882812 14.359375 8.832031 14.359375 C 8.828125 14.4375 8.824219 14.515625 8.820312 14.597656 C 8.8125 14.703125 8.808594 14.808594 8.800781 14.910156 C 8.800781 14.964844 8.796875 15.015625 8.792969 15.066406 C 8.777344 15.371094 8.734375 15.621094 8.601562 15.894531 C 8.578125 15.894531 8.550781 15.894531 8.527344 15.894531 C 8.546875 15.054688 8.644531 14.320312 8.90625 13.515625 C 8.929688 13.433594 8.953125 13.351562 8.976562 13.269531 C 9.453125 11.574219 10.324219 10.042969 11.417969 8.675781 C 11.457031 8.628906 11.496094 8.582031 11.535156 8.53125 C 12.992188 6.722656 14.890625 5.367188 17.050781 4.53125 C 17.136719 4.496094 17.21875 4.464844 17.304688 4.429688 C 17.597656 4.324219 17.894531 4.230469 18.195312 4.148438 C 18.253906 4.128906 18.316406 4.109375 18.378906 4.09375 C 19.484375 3.785156 20.558594 3.726562 21.695312 3.722656 Z M 21.695312 3.722656 "/>
<path style=" stroke:none;fill-rule:nonzero;fill:rgb(28.627452%,37.254903%,46.27451%);fill-opacity:1;" d="M 21.695312 3.722656 C 21.761719 3.722656 21.828125 3.722656 21.894531 3.722656 C 23.050781 3.722656 24.140625 3.871094 25.257812 4.175781 C 25.320312 4.191406 25.382812 4.207031 25.445312 4.226562 C 26.960938 4.652344 28.460938 5.457031 29.6875 6.449219 C 29.730469 6.484375 29.777344 6.519531 29.820312 6.558594 C 30.300781 6.945312 30.753906 7.339844 31.136719 7.832031 C 30.839844 7.710938 30.648438 7.515625 30.421875 7.296875 C 28.597656 5.566406 26.207031 4.484375 23.75 4.070312 C 23.679688 4.054688 23.609375 4.039062 23.539062 4.023438 C 20.601562 3.402344 17.175781 4.351562 14.6875 5.933594 C 14.074219 6.347656 13.503906 6.816406 12.941406 7.296875 C 12.886719 7.339844 12.832031 7.382812 12.777344 7.429688 C 12.339844 7.792969 11.996094 8.226562 11.648438 8.675781 C 11.585938 8.75 11.527344 8.824219 11.464844 8.902344 C 10.628906 9.949219 10.011719 11.121094 9.515625 12.363281 C 9.480469 12.449219 9.441406 12.535156 9.402344 12.625 C 9.171875 13.199219 9.050781 13.746094 8.984375 14.359375 C 8.933594 14.359375 8.882812 14.359375 8.832031 14.359375 C 8.828125 14.4375 8.824219 14.515625 8.820312 14.597656 C 8.8125 14.703125 8.808594 14.808594 8.800781 14.910156 C 8.800781 14.964844 8.796875 15.015625 8.792969 15.066406 C 8.777344 15.371094 8.734375 15.621094 8.601562 15.894531 C 8.578125 15.894531 8.550781 15.894531 8.527344 15.894531 C 8.546875 15.054688 8.644531 14.320312 8.90625 13.515625 C 8.929688 13.433594 8.953125 13.351562 8.976562 13.269531 C 9.453125 11.574219 10.324219 10.042969 11.417969 8.675781 C 11.457031 8.628906 11.496094 8.582031 11.535156 8.53125 C 12.992188 6.722656 14.890625 5.367188 17.050781 4.53125 C 17.136719 4.496094 17.21875 4.464844 17.304688 4.429688 C 17.597656 4.324219 17.894531 4.230469 18.195312 4.148438 C 18.285156 4.121094 18.285156 4.121094 18.378906 4.09375 C 19.484375 3.785156 20.558594 3.726562 21.695312 3.722656 Z M 21.695312 3.722656 "/>
<path style=" stroke:none;fill-rule:nonzero;fill:rgb(20%,29.411766%,39.607844%);fill-opacity:1;" d="M 14.867188 32.582031 C 15.148438 32.757812 15.273438 32.855469 15.378906 33.171875 C 15.378906 33.425781 15.378906 33.679688 15.378906 33.941406 C 14.699219 33.941406 14.019531 33.941406 13.320312 33.941406 C 13.367188 34.195312 13.367188 34.195312 13.414062 34.460938 C 13.429688 34.554688 13.445312 34.652344 13.464844 34.75 C 13.566406 35.058594 13.65625 35.160156 13.929688 35.324219 C 14.09375 35.363281 14.09375 35.363281 14.257812 35.347656 C 14.316406 35.34375 14.375 35.339844 14.4375 35.339844 C 14.699219 35.316406 14.960938 35.285156 15.226562 35.246094 C 15.148438 35.398438 15.148438 35.398438 15.027344 35.445312 C 14.777344 35.488281 14.535156 35.496094 14.28125 35.5 C 14.183594 35.503906 14.085938 35.507812 13.984375 35.507812 C 13.558594 35.460938 13.34375 35.285156 13.066406 34.960938 C 12.910156 34.648438 12.886719 34.410156 12.894531 34.066406 C 12.894531 34.007812 12.894531 33.949219 12.894531 33.890625 C 12.910156 33.484375 12.972656 33.199219 13.257812 32.898438 C 13.761719 32.496094 14.242188 32.332031 14.867188 32.582031 Z M 14.867188 32.582031 "/>
<path style=" stroke:none;fill-rule:nonzero;fill:rgb(9.411765%,20.392157%,31.764707%);fill-opacity:1;" d="M 23.140625 32.480469 C 23.34375 32.597656 23.511719 32.699219 23.675781 32.867188 C 23.679688 33.054688 23.683594 33.238281 23.683594 33.425781 C 23.683594 33.484375 23.683594 33.539062 23.683594 33.597656 C 23.679688 33.777344 23.679688 33.957031 23.679688 34.136719 C 23.679688 34.257812 23.679688 34.382812 23.679688 34.503906 C 23.675781 34.800781 23.675781 35.101562 23.675781 35.398438 C 23.824219 35.398438 23.976562 35.398438 24.132812 35.398438 C 24.132812 35.425781 24.132812 35.449219 24.132812 35.476562 C 23.753906 35.476562 23.378906 35.476562 22.988281 35.476562 C 23.140625 35.4375 23.140625 35.4375 23.292969 35.398438 C 23.292969 35.054688 23.289062 34.707031 23.28125 34.363281 C 23.28125 34.246094 23.28125 34.128906 23.277344 34.007812 C 23.277344 33.839844 23.277344 33.671875 23.273438 33.503906 C 23.273438 33.449219 23.273438 33.398438 23.273438 33.34375 C 23.273438 33.175781 23.273438 33.175781 23.21875 32.941406 C 23.03125 32.792969 22.917969 32.71875 22.675781 32.699219 C 22.628906 32.710938 22.578125 32.71875 22.527344 32.726562 C 22.480469 32.734375 22.429688 32.742188 22.378906 32.75 C 22.195312 32.792969 22.195312 32.792969 21.925781 32.941406 C 21.898438 33.753906 21.875 34.5625 21.847656 35.398438 C 22 35.398438 22.148438 35.398438 22.304688 35.398438 C 22.304688 35.425781 22.304688 35.449219 22.304688 35.476562 C 21.925781 35.476562 21.550781 35.476562 21.164062 35.476562 C 21.238281 35.425781 21.3125 35.375 21.390625 35.324219 C 21.417969 35.117188 21.429688 34.925781 21.429688 34.71875 C 21.429688 34.660156 21.433594 34.601562 21.433594 34.539062 C 21.4375 34.351562 21.441406 34.160156 21.441406 33.96875 C 21.445312 33.839844 21.449219 33.710938 21.453125 33.582031 C 21.457031 33.265625 21.460938 32.953125 21.46875 32.636719 C 21.339844 32.636719 21.214844 32.636719 21.085938 32.636719 C 21.085938 32.609375 21.085938 32.585938 21.085938 32.558594 C 21.335938 32.558594 21.589844 32.558594 21.847656 32.558594 C 21.847656 32.632812 21.847656 32.710938 21.847656 32.789062 C 21.910156 32.753906 21.910156 32.753906 21.976562 32.722656 C 22.390625 32.519531 22.683594 32.421875 23.140625 32.480469 Z M 23.140625 32.480469 "/>
<path style=" stroke:none;fill-rule:nonzero;fill:rgb(13.725491%,23.921569%,34.901962%);fill-opacity:1;" d="M 26.574219 32.625 C 26.875 32.804688 27.097656 33.089844 27.253906 33.402344 C 27.292969 33.9375 27.296875 34.394531 27.023438 34.863281 C 26.742188 35.191406 26.464844 35.449219 26.023438 35.507812 C 25.164062 35.511719 25.164062 35.511719 24.816406 35.167969 C 24.78125 35.132812 24.742188 35.097656 24.707031 35.0625 C 24.398438 34.714844 24.394531 34.382812 24.414062 33.929688 C 24.460938 33.472656 24.554688 33.121094 24.894531 32.789062 C 25.441406 32.414062 25.964844 32.375 26.574219 32.625 Z M 24.894531 33.171875 C 24.71875 33.632812 24.722656 34.300781 24.890625 34.753906 C 25.046875 35.015625 25.226562 35.269531 25.5 35.398438 C 25.777344 35.429688 25.972656 35.421875 26.234375 35.324219 C 26.601562 35.011719 26.789062 34.730469 26.835938 34.242188 C 26.882812 33.527344 26.882812 33.527344 26.578125 32.902344 C 26.296875 32.648438 26.0625 32.59375 25.6875 32.597656 C 25.347656 32.667969 25.105469 32.902344 24.894531 33.171875 Z M 24.894531 33.171875 "/>
<path style=" stroke:none;fill-rule:nonzero;fill:rgb(9.803922%,20.784314%,31.764707%);fill-opacity:1;" d="M 32.601562 32.582031 C 32.917969 32.777344 32.917969 32.777344 33.039062 32.941406 C 33.070312 33.1875 33.070312 33.1875 33.078125 33.484375 C 33.078125 33.5625 33.078125 33.5625 33.082031 33.644531 C 33.085938 33.8125 33.085938 33.980469 33.089844 34.148438 C 33.09375 34.261719 33.09375 34.375 33.097656 34.488281 C 33.105469 34.765625 33.109375 35.042969 33.113281 35.324219 C 33.214844 35.375 33.316406 35.425781 33.417969 35.476562 C 33.3125 35.480469 33.203125 35.480469 33.09375 35.480469 C 33.035156 35.480469 32.976562 35.484375 32.914062 35.484375 C 32.734375 35.476562 32.734375 35.476562 32.574219 35.433594 C 32.414062 35.382812 32.414062 35.382812 32.199219 35.476562 C 31.34375 35.554688 31.34375 35.554688 30.957031 35.324219 C 30.777344 35 30.765625 34.847656 30.832031 34.476562 C 31.179688 34.164062 31.496094 34.082031 31.953125 34.089844 C 32.015625 34.089844 32.074219 34.089844 32.136719 34.089844 C 32.183594 34.09375 32.230469 34.09375 32.277344 34.09375 C 32.277344 34.121094 32.277344 34.144531 32.277344 34.171875 C 32.1875 34.1875 32.1875 34.1875 32.097656 34.203125 C 32.023438 34.214844 31.945312 34.230469 31.867188 34.242188 C 31.792969 34.257812 31.714844 34.269531 31.636719 34.285156 C 31.441406 34.316406 31.441406 34.316406 31.289062 34.402344 C 31.28125 34.511719 31.28125 34.621094 31.277344 34.734375 C 31.273438 34.824219 31.273438 34.824219 31.273438 34.917969 C 31.273438 35.113281 31.273438 35.113281 31.4375 35.324219 C 31.824219 35.355469 32.078125 35.332031 32.429688 35.167969 C 32.503906 35.167969 32.578125 35.167969 32.65625 35.167969 C 32.65625 34.816406 32.65625 34.460938 32.65625 34.09375 C 32.558594 34.070312 32.457031 34.042969 32.351562 34.015625 C 32.453125 34.015625 32.554688 34.015625 32.65625 34.015625 C 32.652344 33.855469 32.644531 33.699219 32.636719 33.539062 C 32.636719 33.449219 32.632812 33.359375 32.628906 33.265625 C 32.574219 32.976562 32.511719 32.882812 32.277344 32.710938 C 31.9375 32.625 31.597656 32.683594 31.289062 32.832031 C 31.03125 33.003906 31.03125 33.003906 30.988281 33.308594 C 30.984375 33.390625 30.984375 33.472656 30.984375 33.558594 C 30.933594 33.558594 30.882812 33.558594 30.832031 33.558594 C 30.832031 33.304688 30.832031 33.050781 30.832031 32.789062 C 32.070312 32.367188 32.070312 32.367188 32.601562 32.582031 Z M 32.601562 32.582031 "/>
<path style=" stroke:none;fill-rule:nonzero;fill:rgb(11.764706%,22.352941%,33.333334%);fill-opacity:1;" d="M 17.6875 32.625 C 17.863281 32.71875 17.976562 32.800781 18.117188 32.941406 C 18.140625 33.179688 18.140625 33.179688 18.148438 33.476562 C 18.152344 33.53125 18.152344 33.582031 18.152344 33.636719 C 18.15625 33.804688 18.160156 33.972656 18.164062 34.140625 C 18.167969 34.257812 18.171875 34.371094 18.175781 34.484375 C 18.179688 34.765625 18.1875 35.042969 18.195312 35.324219 C 18.292969 35.375 18.394531 35.425781 18.5 35.476562 C 18.390625 35.480469 18.28125 35.480469 18.175781 35.480469 C 18.113281 35.480469 18.054688 35.484375 17.992188 35.484375 C 17.8125 35.476562 17.8125 35.476562 17.65625 35.433594 C 17.476562 35.394531 17.378906 35.425781 17.203125 35.476562 C 16.796875 35.511719 16.421875 35.535156 16.042969 35.367188 C 15.875 35.117188 15.851562 34.941406 15.867188 34.640625 C 15.910156 34.476562 15.910156 34.476562 16.121094 34.285156 C 16.4375 34.136719 16.683594 34.085938 17.03125 34.089844 C 17.09375 34.089844 17.15625 34.089844 17.21875 34.089844 C 17.261719 34.09375 17.308594 34.09375 17.355469 34.09375 C 17.355469 34.121094 17.355469 34.144531 17.355469 34.171875 C 17.296875 34.179688 17.242188 34.191406 17.179688 34.199219 C 17.105469 34.210938 17.03125 34.226562 16.953125 34.238281 C 16.875 34.25 16.800781 34.261719 16.722656 34.277344 C 16.503906 34.316406 16.503906 34.316406 16.289062 34.476562 C 16.25 34.875 16.25 34.875 16.367188 35.246094 C 16.664062 35.394531 16.980469 35.371094 17.285156 35.269531 C 17.414062 35.214844 17.539062 35.15625 17.660156 35.09375 C 17.6875 34.761719 17.710938 34.433594 17.738281 34.09375 C 17.636719 34.070312 17.535156 34.042969 17.433594 34.015625 C 17.53125 34.015625 17.632812 34.015625 17.738281 34.015625 C 17.734375 33.855469 17.726562 33.699219 17.71875 33.539062 C 17.714844 33.449219 17.710938 33.359375 17.707031 33.265625 C 17.652344 32.980469 17.589844 32.882812 17.355469 32.710938 C 16.933594 32.65625 16.632812 32.714844 16.257812 32.921875 C 16.113281 33.023438 16.113281 33.023438 16.0625 33.269531 C 16.0625 33.339844 16.0625 33.40625 16.0625 33.480469 C 16.011719 33.480469 15.960938 33.480469 15.910156 33.480469 C 15.910156 33.25 15.910156 33.023438 15.910156 32.789062 C 17.046875 32.316406 17.046875 32.316406 17.6875 32.625 Z M 17.6875 32.625 "/>
<path style=" stroke:none;fill-rule:nonzero;fill:rgb(8.235294%,19.215687%,30.980393%);fill-opacity:1;" d="M 9.894531 31.328125 C 10.273438 31.328125 10.648438 31.328125 11.039062 31.328125 C 10.886719 31.40625 10.886719 31.40625 10.734375 31.484375 C 10.707031 32.777344 10.683594 34.066406 10.65625 35.398438 C 11.449219 35.363281 11.449219 35.363281 12.257812 35.324219 C 12.304688 35.042969 12.355469 34.765625 12.410156 34.476562 C 12.433594 34.476562 12.457031 34.476562 12.484375 34.476562 C 12.484375 34.808594 12.484375 35.136719 12.484375 35.476562 C 11.628906 35.476562 10.777344 35.476562 9.894531 35.476562 C 9.996094 35.425781 10.097656 35.375 10.199219 35.324219 C 10.226562 34.054688 10.25 32.789062 10.277344 31.484375 C 10.152344 31.457031 10.027344 31.433594 9.894531 31.40625 C 9.894531 31.382812 9.894531 31.355469 9.894531 31.328125 Z M 9.894531 31.328125 "/>
<path style=" stroke:none;fill-rule:nonzero;fill:rgb(13.725491%,24.313726%,34.901962%);fill-opacity:1;" d="M 27.40625 32.558594 C 27.78125 32.558594 28.160156 32.558594 28.546875 32.558594 C 28.445312 32.582031 28.347656 32.609375 28.242188 32.636719 C 28.351562 33.027344 28.46875 33.410156 28.621094 33.785156 C 29.003906 34.722656 29.003906 34.722656 29.003906 35.167969 C 29.054688 35.167969 29.105469 35.167969 29.15625 35.167969 C 29.164062 35.113281 29.175781 35.058594 29.183594 35 C 29.230469 34.789062 29.292969 34.597656 29.367188 34.394531 C 29.394531 34.320312 29.421875 34.25 29.449219 34.171875 C 29.476562 34.097656 29.503906 34.023438 29.53125 33.945312 C 29.585938 33.796875 29.640625 33.648438 29.695312 33.496094 C 29.722656 33.425781 29.746094 33.359375 29.773438 33.285156 C 29.851562 33.070312 29.921875 32.855469 29.992188 32.636719 C 29.894531 32.609375 29.792969 32.585938 29.6875 32.558594 C 30.015625 32.558594 30.339844 32.558594 30.679688 32.558594 C 30.679688 32.582031 30.679688 32.609375 30.679688 32.636719 C 30.550781 32.636719 30.425781 32.636719 30.296875 32.636719 C 30.269531 32.730469 30.238281 32.824219 30.207031 32.921875 C 30.085938 33.285156 29.945312 33.632812 29.796875 33.984375 C 29.59375 34.476562 29.414062 34.976562 29.230469 35.476562 C 29.082031 35.476562 28.929688 35.476562 28.773438 35.476562 C 28.757812 35.4375 28.746094 35.398438 28.730469 35.355469 C 28.660156 35.171875 28.589844 34.992188 28.519531 34.808594 C 28.492188 34.746094 28.46875 34.683594 28.445312 34.621094 C 28.234375 34.074219 28.015625 33.53125 27.789062 32.992188 C 27.710938 32.789062 27.710938 32.789062 27.710938 32.636719 C 27.609375 32.609375 27.507812 32.585938 27.40625 32.558594 Z M 27.40625 32.558594 "/>
<path style=" stroke:none;fill-rule:nonzero;fill:rgb(73.333335%,76.47059%,79.607844%);fill-opacity:1;" d="M 8.679688 15.589844 C 8.652344 23.214844 8.628906 30.84375 8.601562 38.703125 C 8.578125 38.703125 8.550781 38.703125 8.527344 38.703125 C 8.5 31.097656 8.476562 23.496094 8.449219 15.664062 C 8.601562 15.589844 8.601562 15.589844 8.679688 15.589844 Z M 8.679688 15.589844 "/>
<path style=" stroke:none;fill-rule:nonzero;fill:rgb(94.901961%,95.686275%,96.078432%);fill-opacity:1;" d="M 17.203125 34.015625 C 17.378906 34.042969 17.554688 34.066406 17.738281 34.09375 C 17.738281 34.421875 17.738281 34.753906 17.738281 35.09375 C 17.304688 35.34375 17.019531 35.46875 16.519531 35.398438 C 16.328125 35.285156 16.328125 35.285156 16.214844 35.09375 C 16.171875 34.863281 16.183594 34.714844 16.214844 34.476562 C 16.441406 34.179688 16.855469 34.15625 17.203125 34.09375 C 17.203125 34.070312 17.203125 34.042969 17.203125 34.015625 Z M 17.203125 34.015625 "/>
<path style=" stroke:none;fill-rule:nonzero;fill:rgb(96.078432%,96.470588%,96.862745%);fill-opacity:1;" d="M 14.617188 32.636719 C 14.796875 32.71875 14.796875 32.71875 14.921875 32.867188 C 15.042969 33.195312 15.074219 33.429688 15.074219 33.785156 C 14.496094 33.785156 13.917969 33.785156 13.320312 33.785156 C 13.40625 33.179688 13.40625 33.179688 13.621094 32.953125 C 13.660156 32.90625 13.703125 32.863281 13.742188 32.816406 C 13.996094 32.578125 14.289062 32.601562 14.617188 32.636719 Z M 14.617188 32.636719 "/>
<path style=" stroke:none;fill-rule:nonzero;fill:rgb(96.078432%,96.470588%,96.862745%);fill-opacity:1;" d="M 32.125 34.015625 C 32.300781 34.042969 32.476562 34.066406 32.65625 34.09375 C 32.65625 34.449219 32.65625 34.804688 32.65625 35.167969 C 32.226562 35.355469 31.90625 35.457031 31.4375 35.398438 C 31.289062 35.289062 31.289062 35.289062 31.210938 35.09375 C 31.195312 34.859375 31.199219 34.632812 31.210938 34.402344 C 31.519531 34.230469 31.777344 34.136719 32.125 34.09375 C 32.125 34.070312 32.125 34.042969 32.125 34.015625 Z M 32.125 34.015625 "/>
<path style=" stroke:none;fill-rule:nonzero;fill:rgb(8.627451%,19.607843%,30.980393%);fill-opacity:1;" d="M 18.804688 32.558594 C 19.027344 32.558594 19.253906 32.558594 19.488281 32.558594 C 19.539062 32.710938 19.589844 32.863281 19.640625 33.019531 C 19.671875 32.984375 19.703125 32.953125 19.734375 32.917969 C 19.984375 32.675781 20.152344 32.527344 20.511719 32.53125 C 20.601562 32.539062 20.691406 32.546875 20.78125 32.558594 C 20.757812 32.660156 20.730469 32.761719 20.707031 32.867188 C 20.65625 32.875 20.601562 32.878906 20.550781 32.886719 C 20.480469 32.898438 20.414062 32.910156 20.34375 32.921875 C 20.277344 32.933594 20.210938 32.945312 20.140625 32.957031 C 19.894531 33.035156 19.800781 33.125 19.640625 33.328125 C 19.589844 33.554688 19.589844 33.554688 19.59375 33.808594 C 19.589844 33.902344 19.589844 33.996094 19.585938 34.089844 C 19.585938 34.234375 19.585938 34.234375 19.582031 34.382812 C 19.582031 34.480469 19.578125 34.578125 19.578125 34.675781 C 19.570312 34.917969 19.566406 35.160156 19.5625 35.398438 C 19.714844 35.398438 19.867188 35.398438 20.019531 35.398438 C 20.019531 35.425781 20.019531 35.449219 20.019531 35.476562 C 19.617188 35.476562 19.21875 35.476562 18.804688 35.476562 C 18.902344 35.425781 19.003906 35.375 19.105469 35.324219 C 19.105469 34.460938 19.105469 33.601562 19.105469 32.710938 C 19.007812 32.660156 18.90625 32.609375 18.804688 32.558594 Z M 18.804688 32.558594 "/>
<path style=" stroke:none;fill-rule:nonzero;fill:rgb(23.137255%,32.156864%,41.960785%);fill-opacity:1;" d="M 20.402344 3.761719 C 20.777344 3.757812 21.15625 3.753906 21.535156 3.75 C 21.660156 3.75 21.789062 3.746094 21.917969 3.746094 C 23.070312 3.726562 24.144531 3.871094 25.257812 4.175781 C 25.320312 4.191406 25.382812 4.207031 25.445312 4.226562 C 26.960938 4.652344 28.460938 5.457031 29.6875 6.449219 C 29.753906 6.503906 29.753906 6.503906 29.820312 6.558594 C 30.300781 6.945312 30.753906 7.339844 31.136719 7.832031 C 30.839844 7.710938 30.648438 7.515625 30.421875 7.296875 C 28.601562 5.574219 26.203125 4.472656 23.75 4.070312 C 23.6875 4.058594 23.625 4.042969 23.558594 4.03125 C 22.894531 3.90625 22.234375 3.882812 21.5625 3.867188 C 21.449219 3.867188 21.335938 3.863281 21.222656 3.859375 C 20.949219 3.851562 20.675781 3.84375 20.402344 3.839844 C 20.402344 3.8125 20.402344 3.789062 20.402344 3.761719 Z M 20.402344 3.761719 "/>
<path style=" stroke:none;fill-rule:nonzero;fill:rgb(38.431373%,45.882353%,53.725493%);fill-opacity:1;" d="M 31.058594 7.832031 C 32.285156 8.359375 33.363281 10.585938 33.867188 11.757812 C 34.039062 12.207031 34.1875 12.667969 34.332031 13.132812 C 34.359375 13.207031 34.382812 13.28125 34.410156 13.359375 C 34.5 13.636719 34.570312 13.917969 34.640625 14.199219 C 34.65625 14.253906 34.667969 14.304688 34.679688 14.359375 C 34.824219 14.9375 34.875 15.488281 34.871094 16.082031 C 34.871094 16.144531 34.867188 16.210938 34.867188 16.273438 C 34.867188 16.429688 34.867188 16.585938 34.863281 16.738281 C 34.839844 16.738281 34.816406 16.738281 34.789062 16.738281 C 34.785156 16.675781 34.78125 16.609375 34.773438 16.542969 C 34.769531 16.460938 34.761719 16.375 34.753906 16.289062 C 34.75 16.207031 34.742188 16.121094 34.738281 16.035156 C 34.726562 15.824219 34.726562 15.824219 34.636719 15.664062 C 34.617188 15.515625 34.597656 15.363281 34.578125 15.214844 C 34.515625 14.730469 34.414062 14.261719 34.300781 13.789062 C 34.277344 13.691406 34.277344 13.691406 34.25 13.59375 C 34.15625 13.214844 34.035156 12.871094 33.875 12.515625 C 33.835938 12.394531 33.796875 12.273438 33.757812 12.152344 C 33.261719 10.773438 32.4375 9.433594 31.429688 8.378906 C 31.28125 8.207031 31.167969 8.03125 31.058594 7.832031 Z M 31.058594 7.832031 "/>
<path style=" stroke:none;fill-rule:nonzero;fill:rgb(9.411765%,20.392157%,31.764707%);fill-opacity:1;" d="M 21.085938 32.558594 C 21.3125 32.558594 21.539062 32.558594 21.773438 32.558594 C 21.847656 32.863281 21.859375 33.136719 21.855469 33.449219 C 21.855469 33.503906 21.855469 33.5625 21.855469 33.617188 C 21.855469 33.796875 21.851562 33.972656 21.851562 34.152344 C 21.851562 34.273438 21.851562 34.394531 21.851562 34.515625 C 21.851562 34.808594 21.847656 35.105469 21.847656 35.398438 C 22 35.398438 22.148438 35.398438 22.304688 35.398438 C 22.304688 35.425781 22.304688 35.449219 22.304688 35.476562 C 21.925781 35.476562 21.550781 35.476562 21.164062 35.476562 C 21.238281 35.425781 21.3125 35.375 21.390625 35.324219 C 21.417969 35.117188 21.429688 34.925781 21.429688 34.71875 C 21.429688 34.660156 21.433594 34.601562 21.433594 34.539062 C 21.4375 34.351562 21.441406 34.160156 21.441406 33.96875 C 21.445312 33.839844 21.449219 33.710938 21.453125 33.582031 C 21.457031 33.265625 21.460938 32.953125 21.46875 32.636719 C 21.339844 32.636719 21.214844 32.636719 21.085938 32.636719 C 21.085938 32.609375 21.085938 32.585938 21.085938 32.558594 Z M 21.085938 32.558594 "/>
<path style=" stroke:none;fill-rule:nonzero;fill:rgb(4.313726%,15.686275%,27.843139%);fill-opacity:1;" d="M 13.398438 33.019531 C 13.492188 33.304688 13.429688 33.363281 13.320312 33.632812 C 13.296875 33.914062 13.308594 34.195312 13.320312 34.476562 C 13.324219 34.535156 13.328125 34.589844 13.328125 34.648438 C 13.339844 34.804688 13.339844 34.804688 13.398438 35.015625 C 13.535156 35.125 13.535156 35.125 13.703125 35.167969 C 13.777344 35.21875 13.851562 35.269531 13.929688 35.324219 C 14.359375 35.375 14.800781 35.308594 15.226562 35.246094 C 15.148438 35.398438 15.148438 35.398438 15.027344 35.445312 C 14.777344 35.488281 14.535156 35.496094 14.28125 35.5 C 14.183594 35.503906 14.085938 35.507812 13.984375 35.507812 C 13.59375 35.464844 13.386719 35.300781 13.105469 35.035156 C 12.972656 34.769531 12.984375 34.503906 12.988281 34.214844 C 12.988281 34.15625 12.988281 34.097656 12.984375 34.039062 C 12.988281 33.597656 13.082031 33.339844 13.398438 33.019531 Z M 13.398438 33.019531 "/>
<path style=" stroke:none;fill-rule:nonzero;fill:rgb(90.980393%,92.156863%,93.333334%);fill-opacity:1;" d="M 17.203125 5.757812 C 17.28125 5.785156 17.355469 5.808594 17.433594 5.835938 C 17.457031 5.988281 17.484375 6.140625 17.507812 6.296875 C 17.734375 6.335938 17.734375 6.335938 17.964844 6.375 C 17.964844 6.425781 17.964844 6.476562 17.964844 6.527344 C 17.855469 6.570312 17.855469 6.570312 17.746094 6.613281 C 17.488281 6.738281 17.488281 6.738281 17.402344 7.003906 C 17.378906 7.109375 17.378906 7.109375 17.355469 7.21875 C 17.304688 7.21875 17.257812 7.21875 17.203125 7.21875 C 17.175781 7.132812 17.148438 7.046875 17.117188 6.960938 C 17.015625 6.710938 16.992188 6.6875 16.734375 6.570312 C 16.628906 6.550781 16.628906 6.550781 16.519531 6.527344 C 16.519531 6.476562 16.519531 6.425781 16.519531 6.375 C 16.78125 6.335938 16.78125 6.335938 17.050781 6.296875 C 17.0625 6.222656 17.074219 6.148438 17.085938 6.070312 C 17.128906 5.835938 17.128906 5.835938 17.203125 5.757812 Z M 17.203125 5.757812 "/>
<path style=" stroke:none;fill-rule:nonzero;fill:rgb(98.431373%,98.823529%,98.823529%);fill-opacity:1;" d="M 25.652344 5.757812 C 25.730469 5.757812 25.804688 5.757812 25.882812 5.757812 C 25.898438 5.832031 25.914062 5.90625 25.929688 5.980469 C 26.011719 6.242188 26.011719 6.242188 26.273438 6.324219 C 26.34375 6.339844 26.417969 6.355469 26.492188 6.375 C 26.492188 6.425781 26.492188 6.476562 26.492188 6.527344 C 26.382812 6.546875 26.382812 6.546875 26.273438 6.570312 C 26.003906 6.660156 26.003906 6.660156 25.929688 6.960938 C 25.914062 7.042969 25.898438 7.128906 25.882812 7.21875 C 25.808594 7.21875 25.730469 7.21875 25.652344 7.21875 C 25.636719 7.132812 25.621094 7.046875 25.605469 6.960938 C 25.53125 6.660156 25.53125 6.660156 25.265625 6.570312 C 25.191406 6.554688 25.121094 6.542969 25.046875 6.527344 C 25.046875 6.476562 25.046875 6.425781 25.046875 6.375 C 25.117188 6.359375 25.1875 6.34375 25.265625 6.324219 C 25.523438 6.242188 25.523438 6.242188 25.605469 5.980469 C 25.621094 5.90625 25.636719 5.835938 25.652344 5.757812 Z M 25.652344 5.757812 "/>
<path style=" stroke:none;fill-rule:nonzero;fill:rgb(53.725493%,59.215689%,65.098041%);fill-opacity:1;" d="M 20.78125 5.605469 C 20.757812 5.789062 20.757812 5.789062 20.707031 5.988281 C 20.628906 6.039062 20.554688 6.089844 20.476562 6.144531 C 20.554688 6.167969 20.628906 6.195312 20.707031 6.21875 C 20.707031 6.167969 20.707031 6.117188 20.707031 6.066406 C 20.78125 6.066406 20.855469 6.066406 20.933594 6.066406 C 20.960938 5.914062 20.984375 5.761719 21.011719 5.605469 C 21.1875 5.558594 21.1875 5.558594 21.390625 5.527344 C 21.464844 5.578125 21.542969 5.628906 21.621094 5.683594 C 21.644531 5.914062 21.644531 5.914062 21.621094 6.144531 C 21.46875 6.296875 21.46875 6.296875 21.277344 6.304688 C 21.214844 6.304688 21.152344 6.300781 21.085938 6.296875 C 21.035156 6.296875 20.984375 6.296875 20.933594 6.296875 C 20.707031 6.296875 20.476562 6.296875 20.25 6.296875 C 20.382812 6 20.382812 6 20.554688 5.914062 C 20.601562 5.757812 20.601562 5.757812 20.628906 5.605469 C 20.578125 5.605469 20.527344 5.605469 20.476562 5.605469 C 20.453125 5.679688 20.425781 5.757812 20.402344 5.835938 C 20.351562 5.835938 20.300781 5.835938 20.25 5.835938 C 20.25 5.761719 20.25 5.683594 20.25 5.605469 C 20.453125 5.503906 20.566406 5.554688 20.78125 5.605469 Z M 20.78125 5.605469 "/>
<path style=" stroke:none;fill-rule:nonzero;fill:rgb(47.843137%,54.11765%,60.784316%);fill-opacity:1;" d="M 9.515625 11.75 C 9.589844 11.75 9.667969 11.75 9.742188 11.75 C 9.636719 12.09375 9.503906 12.421875 9.363281 12.75 C 9.144531 13.277344 9.039062 13.789062 8.984375 14.359375 C 8.933594 14.359375 8.882812 14.359375 8.832031 14.359375 C 8.828125 14.4375 8.824219 14.515625 8.820312 14.597656 C 8.8125 14.703125 8.808594 14.808594 8.800781 14.910156 C 8.800781 14.964844 8.796875 15.015625 8.792969 15.066406 C 8.777344 15.371094 8.734375 15.621094 8.601562 15.894531 C 8.578125 15.894531 8.550781 15.894531 8.527344 15.894531 C 8.546875 15.054688 8.644531 14.320312 8.90625 13.515625 C 8.957031 13.34375 9.007812 13.167969 9.058594 12.996094 C 9.1875 12.570312 9.34375 12.160156 9.515625 11.75 Z M 9.515625 11.75 "/>
<path style=" stroke:none;fill-rule:nonzero;fill:rgb(67.058825%,70.980394%,75.294119%);fill-opacity:1;" d="M 22.074219 5.605469 C 22.328125 5.605469 22.582031 5.605469 22.835938 5.605469 C 22.8125 5.65625 22.789062 5.707031 22.761719 5.757812 C 22.6875 5.757812 22.609375 5.757812 22.53125 5.757812 C 22.53125 5.808594 22.53125 5.859375 22.53125 5.914062 C 22.757812 5.949219 22.757812 5.949219 22.988281 5.988281 C 22.964844 6.117188 22.9375 6.242188 22.914062 6.375 C 22.550781 6.460938 22.550781 6.460938 22.378906 6.375 C 22.261719 6.355469 22.144531 6.34375 22.027344 6.332031 C 21.964844 6.324219 21.902344 6.316406 21.839844 6.3125 C 21.792969 6.304688 21.746094 6.300781 21.695312 6.296875 C 21.828125 6 21.828125 6 22 5.914062 C 22.050781 5.757812 22.050781 5.757812 22.074219 5.605469 Z M 22.074219 5.605469 "/>
<path style=" stroke:none;fill-rule:nonzero;fill:rgb(13.725491%,23.921569%,34.901962%);fill-opacity:1;" d="M 31.953125 34.089844 C 32.015625 34.089844 32.074219 34.089844 32.136719 34.089844 C 32.183594 34.09375 32.230469 34.09375 32.277344 34.09375 C 32.277344 34.121094 32.277344 34.144531 32.277344 34.171875 C 32.1875 34.1875 32.1875 34.1875 32.097656 34.203125 C 32.023438 34.214844 31.945312 34.230469 31.867188 34.242188 C 31.753906 34.261719 31.753906 34.261719 31.636719 34.285156 C 31.441406 34.316406 31.441406 34.316406 31.289062 34.402344 C 31.28125 34.511719 31.28125 34.621094 31.277344 34.734375 C 31.273438 34.824219 31.273438 34.824219 31.273438 34.917969 C 31.273438 35.113281 31.273438 35.113281 31.4375 35.324219 C 31.765625 35.351562 32.03125 35.339844 32.34375 35.242188 C 32.582031 35.167969 32.582031 35.167969 32.734375 35.246094 C 32.707031 35.296875 32.683594 35.347656 32.65625 35.398438 C 32.113281 35.523438 31.449219 35.621094 30.957031 35.324219 C 30.777344 35 30.765625 34.847656 30.832031 34.476562 C 31.179688 34.164062 31.496094 34.082031 31.953125 34.089844 Z M 31.953125 34.089844 "/>
<path style=" stroke:none;fill-rule:nonzero;fill:rgb(24.705882%,33.725491%,43.137255%);fill-opacity:1;" d="M 29.6875 32.558594 C 30.015625 32.558594 30.339844 32.558594 30.679688 32.558594 C 30.679688 32.582031 30.679688 32.609375 30.679688 32.636719 C 30.550781 32.636719 30.425781 32.636719 30.296875 32.636719 C 30.269531 32.730469 30.238281 32.824219 30.207031 32.921875 C 30.085938 33.285156 29.945312 33.632812 29.796875 33.984375 C 29.59375 34.476562 29.414062 34.976562 29.230469 35.476562 C 29.207031 35.425781 29.179688 35.375 29.15625 35.324219 C 29.105469 35.324219 29.054688 35.324219 29.003906 35.324219 C 29.003906 35.273438 29.003906 35.222656 29.003906 35.167969 C 29.054688 35.167969 29.105469 35.167969 29.15625 35.167969 C 29.171875 35.085938 29.171875 35.085938 29.183594 35 C 29.230469 34.789062 29.292969 34.597656 29.367188 34.394531 C 29.40625 34.285156 29.40625 34.285156 29.449219 34.171875 C 29.476562 34.097656 29.503906 34.023438 29.53125 33.945312 C 29.585938 33.796875 29.640625 33.648438 29.695312 33.496094 C 29.722656 33.425781 29.746094 33.359375 29.773438 33.285156 C 29.851562 33.070312 29.921875 32.855469 29.992188 32.636719 C 29.894531 32.609375 29.792969 32.585938 29.6875 32.558594 Z M 29.6875 32.558594 "/>
<path style=" stroke:none;fill-rule:nonzero;fill:rgb(36.078432%,43.921569%,51.764709%);fill-opacity:1;" d="M 12.105469 7.832031 C 12.152344 7.882812 12.203125 7.933594 12.257812 7.984375 C 12.210938 8.03125 12.164062 8.078125 12.117188 8.128906 C 11.121094 9.191406 10.382812 10.4375 9.742188 11.75 C 9.695312 11.75 9.644531 11.75 9.589844 11.75 C 9.925781 10.601562 10.6875 9.597656 11.417969 8.675781 C 11.453125 8.632812 11.488281 8.589844 11.527344 8.542969 C 11.714844 8.304688 11.910156 8.066406 12.105469 7.832031 Z M 12.105469 7.832031 "/>
<path style=" stroke:none;fill-rule:nonzero;fill:rgb(26.666668%,35.686275%,44.705883%);fill-opacity:1;" d="M 28.015625 5.375 C 29.113281 5.910156 30.449219 6.796875 31.136719 7.832031 C 30.839844 7.710938 30.648438 7.515625 30.421875 7.296875 C 29.734375 6.644531 28.964844 6.121094 28.160156 5.632812 C 28.113281 5.597656 28.0625 5.566406 28.015625 5.527344 C 28.015625 5.476562 28.015625 5.425781 28.015625 5.375 Z M 28.015625 5.375 "/>
<path style=" stroke:none;fill-rule:nonzero;fill:rgb(31.764707%,40.000001%,48.627451%);fill-opacity:1;" d="M 21.085938 3.839844 C 21.085938 3.863281 21.085938 3.890625 21.085938 3.917969 C 20.941406 3.929688 20.941406 3.929688 20.792969 3.941406 C 19.695312 4.042969 18.644531 4.21875 17.585938 4.53125 C 17.535156 4.480469 17.484375 4.429688 17.433594 4.378906 C 19.839844 3.65625 19.839844 3.65625 21.085938 3.839844 Z M 21.085938 3.839844 "/>
<path style=" stroke:none;fill-rule:nonzero;fill:rgb(11.372549%,22.352941%,33.333334%);fill-opacity:1;" d="M 14.84375 32.710938 C 15.148438 32.789062 15.148438 32.789062 15.28125 32.941406 C 15.410156 33.253906 15.398438 33.53125 15.378906 33.863281 C 15.277344 33.863281 15.175781 33.863281 15.074219 33.863281 C 14.996094 33.484375 14.921875 33.105469 14.84375 32.710938 Z M 14.84375 32.710938 "/>
<path style=" stroke:none;fill-rule:nonzero;fill:rgb(9.019608%,20%,31.37255%);fill-opacity:1;" d="M 20.78125 32.558594 C 20.757812 32.660156 20.730469 32.761719 20.707031 32.867188 C 20.628906 32.875 20.628906 32.875 20.554688 32.886719 C 20.144531 32.957031 19.867188 33.019531 19.5625 33.328125 C 19.488281 33.25 19.488281 33.25 19.480469 33.109375 C 19.484375 32.949219 19.484375 32.792969 19.488281 32.636719 C 19.511719 32.636719 19.539062 32.636719 19.5625 32.636719 C 19.589844 32.761719 19.613281 32.886719 19.640625 33.019531 C 19.671875 32.984375 19.703125 32.953125 19.734375 32.917969 C 20.089844 32.574219 20.289062 32.507812 20.78125 32.558594 Z M 20.78125 32.558594 "/>
<path style=" stroke:none;fill-rule:nonzero;fill:rgb(90.980393%,92.156863%,93.333334%);fill-opacity:1;" d="M 25.652344 5.757812 C 25.730469 5.757812 25.804688 5.757812 25.882812 5.757812 C 25.882812 5.859375 25.882812 5.960938 25.882812 6.066406 C 25.832031 6.066406 25.78125 6.066406 25.730469 6.066406 C 25.695312 6.140625 25.695312 6.140625 25.664062 6.214844 C 25.578125 6.375 25.578125 6.375 25.425781 6.449219 C 25.578125 6.550781 25.726562 6.652344 25.882812 6.757812 C 25.882812 6.707031 25.882812 6.65625 25.882812 6.605469 C 25.933594 6.628906 25.984375 6.65625 26.035156 6.679688 C 25.984375 6.859375 25.933594 7.035156 25.882812 7.21875 C 25.808594 7.21875 25.730469 7.21875 25.652344 7.21875 C 25.636719 7.132812 25.621094 7.046875 25.605469 6.960938 C 25.53125 6.660156 25.53125 6.660156 25.265625 6.570312 C 25.191406 6.554688 25.121094 6.542969 25.046875 6.527344 C 25.046875 6.476562 25.046875 6.425781 25.046875 6.375 C 25.117188 6.359375 25.1875 6.34375 25.265625 6.324219 C 25.523438 6.242188 25.523438 6.242188 25.605469 5.980469 C 25.621094 5.90625 25.636719 5.835938 25.652344 5.757812 Z M 25.652344 5.757812 "/>
<path style=" stroke:none;fill-rule:nonzero;fill:rgb(28.235295%,36.862746%,45.882353%);fill-opacity:1;" d="M 32.351562 32.480469 C 32.402344 32.53125 32.453125 32.582031 32.503906 32.636719 C 32.285156 32.710938 32.179688 32.710938 31.953125 32.699219 C 31.566406 32.695312 31.363281 32.769531 31.058594 33.019531 C 30.976562 33.296875 30.976562 33.296875 30.984375 33.558594 C 30.933594 33.558594 30.882812 33.558594 30.832031 33.558594 C 30.832031 33.304688 30.832031 33.050781 30.832031 32.789062 C 31.910156 32.421875 31.910156 32.421875 32.351562 32.480469 Z M 32.351562 32.480469 "/>
<path style=" stroke:none;fill-rule:nonzero;fill:rgb(23.529412%,32.941177%,42.352942%);fill-opacity:1;" d="M 17.355469 32.480469 C 17.183594 32.65625 17.113281 32.664062 16.875 32.707031 C 16.589844 32.769531 16.363281 32.820312 16.136719 33.019531 C 16.070312 33.257812 16.070312 33.257812 16.0625 33.480469 C 16.011719 33.480469 15.960938 33.480469 15.910156 33.480469 C 15.910156 33.25 15.910156 33.023438 15.910156 32.789062 C 16.410156 32.582031 16.816406 32.441406 17.355469 32.480469 Z M 17.355469 32.480469 "/>
<path style=" stroke:none;fill-rule:nonzero;fill:rgb(47.450981%,54.11765%,60.392159%);fill-opacity:1;" d="M 29.613281 33.710938 C 29.6875 33.734375 29.761719 33.761719 29.839844 33.785156 C 29.722656 34.160156 29.585938 34.523438 29.449219 34.890625 C 29.429688 34.949219 29.410156 35.003906 29.386719 35.0625 C 29.335938 35.199219 29.285156 35.339844 29.230469 35.476562 C 29.207031 35.425781 29.179688 35.375 29.15625 35.324219 C 29.105469 35.324219 29.054688 35.324219 29.003906 35.324219 C 29.003906 35.273438 29.003906 35.222656 29.003906 35.167969 C 29.054688 35.167969 29.105469 35.167969 29.15625 35.167969 C 29.164062 35.117188 29.171875 35.066406 29.179688 35.011719 C 29.242188 34.742188 29.332031 34.484375 29.425781 34.222656 C 29.445312 34.175781 29.460938 34.125 29.480469 34.074219 C 29.523438 33.953125 29.570312 33.832031 29.613281 33.710938 Z M 29.613281 33.710938 "/>
<path style=" stroke:none;fill-rule:nonzero;fill:rgb(33.333334%,41.568628%,49.803922%);fill-opacity:1;" d="M 31.058594 7.832031 C 31.707031 8.105469 32.148438 8.863281 32.503906 9.445312 C 32.480469 9.496094 32.453125 9.546875 32.429688 9.597656 C 32.382812 9.535156 32.332031 9.46875 32.285156 9.40625 C 31.925781 8.929688 31.566406 8.46875 31.164062 8.03125 C 31.058594 7.910156 31.058594 7.910156 31.058594 7.832031 Z M 31.058594 7.832031 "/>
<path style=" stroke:none;fill-rule:nonzero;fill:rgb(37.64706%,45.490196%,53.333336%);fill-opacity:1;" d="M 8.832031 13.976562 C 8.855469 13.976562 8.878906 13.976562 8.90625 13.976562 C 8.890625 14.097656 8.890625 14.097656 8.875 14.226562 C 8.828125 14.582031 8.804688 14.9375 8.78125 15.292969 C 8.753906 15.515625 8.691406 15.691406 8.601562 15.894531 C 8.578125 15.894531 8.550781 15.894531 8.527344 15.894531 C 8.570312 14.511719 8.570312 14.511719 8.832031 13.976562 Z M 8.832031 13.976562 "/>
<path style=" stroke:none;fill-rule:nonzero;fill:rgb(34.117648%,42.352942%,50.588238%);fill-opacity:1;" d="M 12.105469 7.832031 C 12.152344 7.882812 12.203125 7.933594 12.257812 7.984375 C 12.207031 8.039062 12.15625 8.09375 12.101562 8.152344 C 11.746094 8.542969 11.40625 8.925781 11.113281 9.367188 C 11.0625 9.34375 11.015625 9.316406 10.960938 9.292969 C 11.082031 9.132812 11.199219 8.976562 11.320312 8.820312 C 11.351562 8.777344 11.386719 8.734375 11.417969 8.6875 C 11.640625 8.398438 11.867188 8.113281 12.105469 7.832031 Z M 12.105469 7.832031 "/>
<path style=" stroke:none;fill-rule:nonzero;fill:rgb(82.745099%,84.705883%,87.058824%);fill-opacity:1;" d="M 22.074219 5.527344 C 22.105469 5.695312 22.105469 5.695312 22.074219 5.914062 C 21.9375 6.066406 21.789062 6.171875 21.621094 6.296875 C 21.542969 6.144531 21.542969 6.144531 21.605469 5.871094 C 21.71875 5.539062 21.742188 5.527344 22.074219 5.527344 Z M 22.074219 5.527344 "/>
<path style=" stroke:none;fill-rule:nonzero;fill:rgb(45.09804%,51.764709%,58.823532%);fill-opacity:1;" d="M 34.710938 14.820312 C 34.738281 14.820312 34.761719 14.820312 34.789062 14.820312 C 34.859375 15.246094 34.875 15.652344 34.871094 16.082031 C 34.871094 16.144531 34.867188 16.210938 34.867188 16.273438 C 34.867188 16.429688 34.867188 16.585938 34.863281 16.738281 C 34.839844 16.738281 34.816406 16.738281 34.789062 16.738281 C 34.785156 16.675781 34.78125 16.609375 34.773438 16.542969 C 34.769531 16.460938 34.761719 16.375 34.753906 16.289062 C 34.75 16.207031 34.742188 16.121094 34.738281 16.035156 C 34.726562 15.824219 34.726562 15.824219 34.636719 15.664062 C 34.644531 15.519531 34.65625 15.375 34.671875 15.234375 C 34.679688 15.117188 34.679688 15.117188 34.695312 15 C 34.699219 14.941406 34.707031 14.882812 34.710938 14.820312 Z M 34.710938 14.820312 "/>
<path style=" stroke:none;fill-rule:nonzero;fill:rgb(98.823529%,99.215686%,99.215686%);fill-opacity:1;" d="M 17.414062 6.273438 C 17.585938 6.375 17.585938 6.375 17.660156 6.527344 C 17.558594 6.601562 17.460938 6.679688 17.355469 6.757812 C 17.167969 6.664062 17 6.570312 16.824219 6.449219 C 17.148438 6.207031 17.148438 6.207031 17.414062 6.273438 Z M 17.414062 6.273438 "/>
<path style=" stroke:none;fill-rule:nonzero;fill:rgb(44.313726%,50.980395%,58.039218%);fill-opacity:1;" d="M 20.78125 5.605469 C 20.757812 5.789062 20.757812 5.789062 20.707031 5.988281 C 20.628906 6.039062 20.554688 6.089844 20.476562 6.144531 C 20.578125 6.195312 20.679688 6.246094 20.78125 6.296875 C 20.605469 6.296875 20.429688 6.296875 20.25 6.296875 C 20.382812 6 20.382812 6 20.554688 5.914062 C 20.601562 5.757812 20.601562 5.757812 20.628906 5.605469 C 20.578125 5.605469 20.527344 5.605469 20.476562 5.605469 C 20.453125 5.679688 20.425781 5.757812 20.402344 5.835938 C 20.351562 5.835938 20.300781 5.835938 20.25 5.835938 C 20.25 5.761719 20.25 5.683594 20.25 5.605469 C 20.453125 5.503906 20.566406 5.554688 20.78125 5.605469 Z M 20.78125 5.605469 "/>
<path style=" stroke:none;fill-rule:nonzero;fill:rgb(16.078432%,26.274511%,36.862746%);fill-opacity:1;" d="M 13.398438 35.246094 C 13.472656 35.257812 13.546875 35.269531 13.621094 35.285156 C 14.164062 35.363281 14.6875 35.324219 15.226562 35.246094 C 15.148438 35.398438 15.148438 35.398438 15.027344 35.445312 C 14.773438 35.488281 14.527344 35.492188 14.273438 35.496094 C 14.125 35.5 14.125 35.5 13.972656 35.5 C 13.695312 35.476562 13.59375 35.4375 13.398438 35.246094 Z M 13.398438 35.246094 "/>
<path style=" stroke:none;fill-rule:nonzero;fill:rgb(30.19608%,38.82353%,47.450981%);fill-opacity:1;" d="M 23.140625 32.480469 C 23.066406 32.519531 23.066406 32.519531 22.988281 32.558594 C 22.988281 32.609375 22.988281 32.660156 22.988281 32.710938 C 22.914062 32.707031 22.839844 32.703125 22.761719 32.699219 C 22.421875 32.695312 22.160156 32.808594 21.847656 32.941406 C 21.824219 32.816406 21.796875 32.6875 21.773438 32.558594 C 21.796875 32.632812 21.820312 32.710938 21.847656 32.789062 C 21.910156 32.753906 21.910156 32.753906 21.976562 32.722656 C 22.390625 32.519531 22.683594 32.449219 23.140625 32.480469 Z M 23.140625 32.480469 "/>
<path style=" stroke:none;fill-rule:nonzero;fill:rgb(48.235294%,54.509807%,60.784316%);fill-opacity:1;" d="M 22.074219 5.605469 C 22.125 5.605469 22.175781 5.605469 22.226562 5.605469 C 22.160156 5.980469 22.160156 5.980469 22.074219 6.066406 C 22.152344 6.089844 22.226562 6.117188 22.304688 6.144531 C 22.304688 6.195312 22.304688 6.246094 22.304688 6.296875 C 22.105469 6.296875 21.902344 6.296875 21.695312 6.296875 C 21.828125 6 21.828125 6 22 5.914062 C 22.050781 5.757812 22.050781 5.757812 22.074219 5.605469 Z M 22.074219 5.605469 "/>
<path style=" stroke:none;fill-rule:nonzero;fill:rgb(59.215689%,63.921571%,69.01961%);fill-opacity:1;" d="M 8.679688 15.589844 C 8.652344 16.09375 8.628906 16.601562 8.601562 17.125 C 8.578125 17.125 8.550781 17.125 8.527344 17.125 C 8.5 16.640625 8.476562 16.160156 8.449219 15.664062 C 8.601562 15.589844 8.601562 15.589844 8.679688 15.589844 Z M 8.679688 15.589844 "/>
<path style=" stroke:none;fill-rule:nonzero;fill:rgb(23.529412%,32.549021%,42.352942%);fill-opacity:1;" d="M 17.585938 4.53125 C 17.15625 4.707031 16.738281 4.875 16.289062 4.992188 C 16.289062 4.941406 16.289062 4.890625 16.289062 4.835938 C 16.449219 4.769531 16.609375 4.707031 16.765625 4.640625 C 16.855469 4.605469 16.941406 4.566406 17.035156 4.53125 C 17.269531 4.457031 17.363281 4.4375 17.585938 4.53125 Z M 17.585938 4.53125 "/>
<path style=" stroke:none;fill-rule:nonzero;fill:rgb(33.333334%,41.176471%,49.803922%);fill-opacity:1;" d="M 32.277344 34.09375 C 32.277344 34.121094 32.277344 34.144531 32.277344 34.171875 C 32.1875 34.1875 32.1875 34.1875 32.097656 34.203125 C 32.023438 34.214844 31.945312 34.230469 31.867188 34.242188 C 31.753906 34.261719 31.753906 34.261719 31.636719 34.285156 C 31.441406 34.316406 31.441406 34.316406 31.289062 34.402344 C 31.25 34.546875 31.25 34.546875 31.238281 34.714844 C 31.230469 34.8125 31.222656 34.914062 31.210938 35.015625 C 31.1875 35.015625 31.160156 35.015625 31.136719 35.015625 C 31.136719 34.8125 31.136719 34.609375 31.136719 34.402344 C 31.085938 34.375 31.035156 34.351562 30.984375 34.324219 C 31.433594 34.125 31.785156 34.0625 32.277344 34.09375 Z M 32.277344 34.09375 "/>
<path style=" stroke:none;fill-rule:nonzero;fill:rgb(27.450982%,36.470589%,45.490196%);fill-opacity:1;" d="M 19.488281 32.636719 C 19.511719 32.636719 19.539062 32.636719 19.5625 32.636719 C 19.589844 32.761719 19.613281 32.886719 19.640625 33.019531 C 19.765625 32.890625 19.890625 32.765625 20.019531 32.636719 C 20.070312 32.660156 20.121094 32.6875 20.171875 32.710938 C 20.089844 32.96875 20.039062 33.003906 19.824219 33.148438 C 19.777344 33.183594 19.726562 33.214844 19.679688 33.25 C 19.640625 33.277344 19.601562 33.300781 19.5625 33.328125 C 19.488281 33.25 19.488281 33.25 19.480469 33.109375 C 19.484375 32.949219 19.484375 32.792969 19.488281 32.636719 Z M 19.488281 32.636719 "/>
<path style=" stroke:none;fill-rule:nonzero;fill:rgb(25.490198%,34.509805%,43.921569%);fill-opacity:1;" d="M 13.09375 6.910156 C 13.144531 6.9375 13.195312 6.960938 13.246094 6.988281 C 13.125 7.113281 13.003906 7.238281 12.882812 7.363281 C 12.816406 7.429688 12.75 7.5 12.679688 7.574219 C 12.511719 7.726562 12.386719 7.824219 12.179688 7.910156 C 12.296875 7.609375 12.484375 7.445312 12.722656 7.238281 C 12.792969 7.175781 12.859375 7.113281 12.933594 7.050781 C 13.011719 6.980469 13.011719 6.980469 13.09375 6.910156 Z M 13.09375 6.910156 "/>
<path style=" stroke:none;fill-rule:nonzero;fill:rgb(21.176471%,30.980393%,40.784314%);fill-opacity:1;" d="M 25.957031 32.558594 C 25.957031 32.582031 25.957031 32.609375 25.957031 32.636719 C 25.816406 32.667969 25.816406 32.667969 25.671875 32.699219 C 25.417969 32.761719 25.242188 32.835938 25.046875 33.019531 C 25.046875 32.96875 25.046875 32.917969 25.046875 32.867188 C 24.996094 32.839844 24.945312 32.816406 24.894531 32.789062 C 25.269531 32.5625 25.515625 32.425781 25.957031 32.558594 Z M 25.957031 32.558594 "/>
<path style=" stroke:none;fill-rule:nonzero;fill:rgb(18.431373%,28.235295%,38.431373%);fill-opacity:1;" d="M 32.351562 32.480469 C 32.402344 32.53125 32.453125 32.582031 32.503906 32.636719 C 32.242188 32.722656 32.03125 32.714844 31.753906 32.707031 C 31.578125 32.703125 31.578125 32.703125 31.363281 32.789062 C 31.3125 32.738281 31.261719 32.6875 31.210938 32.636719 C 31.601562 32.523438 31.941406 32.449219 32.351562 32.480469 Z M 32.351562 32.480469 "/>
<path style=" stroke:none;fill-rule:nonzero;fill:rgb(44.313726%,50.980395%,58.039218%);fill-opacity:1;" d="M 33.800781 11.824219 C 34.015625 12.042969 34.101562 12.296875 34.179688 12.59375 C 34.15625 12.824219 34.15625 12.824219 34.105469 12.976562 C 33.867188 12.621094 33.773438 12.253906 33.800781 11.824219 Z M 33.800781 11.824219 "/>
<path style=" stroke:none;fill-rule:nonzero;fill:rgb(30.19608%,38.431373%,47.058824%);fill-opacity:1;" d="M 34.636719 39.164062 C 34.660156 39.238281 34.6875 39.3125 34.710938 39.394531 C 34.613281 39.484375 34.515625 39.570312 34.417969 39.660156 C 34.363281 39.710938 34.308594 39.761719 34.25 39.8125 C 34.105469 39.929688 34.105469 39.929688 33.953125 39.929688 C 33.953125 39.878906 33.953125 39.828125 33.953125 39.777344 C 34.007812 39.742188 34.066406 39.710938 34.121094 39.675781 C 34.351562 39.535156 34.480469 39.378906 34.636719 39.164062 Z M 34.636719 39.164062 "/>
<path style=" stroke:none;fill-rule:nonzero;fill:rgb(81.568629%,83.92157%,86.274511%);fill-opacity:1;" d="M 22.457031 5.988281 C 22.582031 6.015625 22.707031 6.039062 22.835938 6.066406 C 22.8125 6.167969 22.789062 6.269531 22.761719 6.375 C 22.636719 6.375 22.511719 6.375 22.378906 6.375 C 22.378906 6.324219 22.378906 6.273438 22.378906 6.21875 C 22.429688 6.21875 22.480469 6.21875 22.53125 6.21875 C 22.507812 6.144531 22.484375 6.066406 22.457031 5.988281 Z M 22.457031 5.988281 "/>
<path style=" stroke:none;fill-rule:nonzero;fill:rgb(97.254902%,97.254902%,97.647059%);fill-opacity:1;" d="M 21.238281 5.605469 C 21.289062 5.605469 21.339844 5.605469 21.390625 5.605469 C 21.390625 5.808594 21.390625 6.011719 21.390625 6.21875 C 21.316406 6.21875 21.242188 6.21875 21.164062 6.21875 C 21.160156 6.039062 21.160156 5.863281 21.164062 5.683594 C 21.1875 5.65625 21.210938 5.632812 21.238281 5.605469 Z M 21.238281 5.605469 "/>
<path style=" stroke:none;fill-rule:nonzero;fill:rgb(40.784314%,47.843137%,55.29412%);fill-opacity:1;" d="M 10.886719 9.367188 C 10.9375 9.367188 10.984375 9.367188 11.039062 9.367188 C 10.898438 9.660156 10.742188 9.933594 10.582031 10.214844 C 10.53125 10.164062 10.480469 10.113281 10.429688 10.058594 C 10.5 9.945312 10.574219 9.828125 10.648438 9.714844 C 10.6875 9.648438 10.730469 9.585938 10.769531 9.519531 C 10.828125 9.445312 10.828125 9.445312 10.886719 9.367188 Z M 10.886719 9.367188 "/>
<path style=" stroke:none;fill-rule:nonzero;fill:rgb(90.588236%,91.764706%,92.941177%);fill-opacity:1;" d="M 20.78125 5.605469 C 20.855469 5.65625 20.933594 5.707031 21.011719 5.757812 C 20.984375 5.859375 20.960938 5.960938 20.933594 6.066406 C 20.859375 6.066406 20.785156 6.066406 20.707031 6.066406 C 20.707031 6.117188 20.707031 6.167969 20.707031 6.21875 C 20.605469 6.195312 20.503906 6.167969 20.402344 6.144531 C 20.449219 6.113281 20.5 6.078125 20.550781 6.046875 C 20.722656 5.898438 20.75 5.828125 20.78125 5.605469 Z M 20.78125 5.605469 "/>
<path style=" stroke:none;fill-rule:nonzero;fill:rgb(93.725491%,94.509804%,95.294118%);fill-opacity:1;" d="M 17.128906 5.835938 C 17.242188 5.941406 17.242188 5.941406 17.355469 6.066406 C 17.355469 6.117188 17.355469 6.167969 17.355469 6.21875 C 17.023438 6.449219 17.023438 6.449219 16.824219 6.449219 C 16.824219 6.398438 16.824219 6.347656 16.824219 6.296875 C 16.898438 6.296875 16.972656 6.296875 17.050781 6.296875 C 17.078125 6.144531 17.101562 5.992188 17.128906 5.835938 Z M 17.128906 5.835938 "/>
<path style=" stroke:none;fill-rule:nonzero;fill:rgb(33.725491%,41.960785%,50.196081%);fill-opacity:1;" d="M 29.917969 33.171875 C 29.941406 33.171875 29.96875 33.171875 29.992188 33.171875 C 30.011719 33.34375 30.011719 33.34375 29.992188 33.558594 C 29.839844 33.734375 29.839844 33.734375 29.6875 33.863281 C 29.746094 33.34375 29.746094 33.34375 29.917969 33.171875 Z M 29.917969 33.171875 "/>
<path style=" stroke:none;fill-rule:nonzero;fill:rgb(89.803922%,90.980393%,92.156863%);fill-opacity:1;" d="M 25.882812 6.144531 C 26.082031 6.21875 26.285156 6.296875 26.492188 6.375 C 26.492188 6.425781 26.492188 6.476562 26.492188 6.527344 C 26.339844 6.550781 26.191406 6.578125 26.035156 6.605469 C 25.984375 6.453125 25.933594 6.300781 25.882812 6.144531 Z M 25.882812 6.144531 "/>
<path style=" stroke:none;fill-rule:nonzero;fill:rgb(45.09804%,51.764709%,58.823532%);fill-opacity:1;" d="M 34.789062 38.546875 C 34.839844 38.546875 34.890625 38.546875 34.941406 38.546875 C 34.917969 38.75 34.890625 38.953125 34.863281 39.164062 C 34.789062 39.164062 34.714844 39.164062 34.636719 39.164062 C 34.6875 38.960938 34.738281 38.757812 34.789062 38.546875 Z M 34.789062 38.546875 "/>
<path style=" stroke:none;fill-rule:nonzero;fill:rgb(35.294119%,43.137255%,51.372552%);fill-opacity:1;" d="M 18.269531 4.300781 C 18.042969 4.425781 17.84375 4.503906 17.585938 4.53125 C 17.535156 4.480469 17.484375 4.429688 17.433594 4.378906 C 17.746094 4.25 17.941406 4.203125 18.269531 4.300781 Z M 18.269531 4.300781 "/>
<path style=" stroke:none;fill-rule:nonzero;fill:rgb(16.078432%,26.274511%,36.862746%);fill-opacity:1;" d="M 26.492188 35.015625 C 26.542969 35.089844 26.59375 35.167969 26.644531 35.246094 C 26.46875 35.367188 26.46875 35.367188 26.261719 35.476562 C 26.1875 35.449219 26.113281 35.425781 26.035156 35.398438 C 26.097656 35.351562 26.15625 35.300781 26.21875 35.25 C 26.359375 35.136719 26.359375 35.136719 26.492188 35.015625 Z M 26.492188 35.015625 "/>
<path style=" stroke:none;fill-rule:nonzero;fill:rgb(36.862746%,44.705883%,52.549022%);fill-opacity:1;" d="M 31.058594 7.832031 C 31.347656 7.945312 31.484375 8.121094 31.667969 8.371094 C 31.59375 8.371094 31.515625 8.371094 31.4375 8.371094 C 31.332031 8.253906 31.332031 8.253906 31.234375 8.101562 C 31.203125 8.050781 31.167969 8 31.132812 7.949219 C 31.097656 7.890625 31.097656 7.890625 31.058594 7.832031 Z M 31.058594 7.832031 "/>
</g>
</svg>
